<?xml version="1.0" encoding="UTF-8"?>
<!DOCTYPE svg PUBLIC "-//W3C//DTD SVG 1.1//EN" "http://www.w3.org/Graphics/SVG/1.1/DTD/svg11.dtd">
<svg xmlns="http://www.w3.org/2000/svg" version="1.1" width="340px" height="340px" style="shape-rendering:geometricPrecision; text-rendering:geometricPrecision; image-rendering:optimizeQuality; fill-rule:evenodd; clip-rule:evenodd" xmlns:xlink="http://www.w3.org/1999/xlink">
<g><path style="opacity:1" fill="#fdfdfd" d="M -0.5,-0.5 C 112.833,-0.5 226.167,-0.5 339.5,-0.5C 339.5,112.833 339.5,226.167 339.5,339.5C 226.167,339.5 112.833,339.5 -0.5,339.5C -0.5,226.167 -0.5,112.833 -0.5,-0.5 Z"/></g>
<g><path style="opacity:1" fill="#bebebe" d="M 169.5,20.5 C 170.49,26.31 170.823,32.31 170.5,38.5C 217.167,38.8333 217.167,39.1667 170.5,39.5C 170.167,46.1667 169.833,46.1667 169.5,39.5C 121.5,39.1667 121.5,38.8333 169.5,38.5C 169.5,32.5 169.5,26.5 169.5,20.5 Z"/></g>
<g><path style="opacity:1" fill="#bebebe" d="M 47.5,22.5 C 48.4927,30.6499 48.8261,38.9832 48.5,47.5C 50.8333,47.5 53.1667,47.5 55.5,47.5C 55.3336,39.16 55.5003,30.8267 56,22.5C 56.4998,31.1603 56.6664,39.8269 56.5,48.5C 53.8333,48.5 51.1667,48.5 48.5,48.5C 48.5,51.5 48.5,54.5 48.5,57.5C 39.8269,57.6664 31.1603,57.4998 22.5,57C 30.8267,56.5003 39.16,56.3336 47.5,56.5C 47.5,53.8333 47.5,51.1667 47.5,48.5C 14.1667,48.1667 14.1667,47.8333 47.5,47.5C 47.5,39.1667 47.5,30.8333 47.5,22.5 Z"/></g>
<g><path style="opacity:1" fill="#bebebe" d="M 282.5,22.5 C 283.493,30.6499 283.826,38.9832 283.5,47.5C 286.167,47.5 288.833,47.5 291.5,47.5C 291.833,14.1667 292.167,14.1667 292.5,47.5C 325.833,47.8333 325.833,48.1667 292.5,48.5C 292.5,51.1667 292.5,53.8333 292.5,56.5C 300.84,56.3336 309.173,56.5003 317.5,57C 308.84,57.4998 300.173,57.6664 291.5,57.5C 291.5,54.5 291.5,51.5 291.5,48.5C 288.5,48.5 285.5,48.5 282.5,48.5C 282.5,39.8333 282.5,31.1667 282.5,22.5 Z"/></g>
<g><path style="opacity:1" fill="#0f0f0f" d="M 163.5,64.5 C 166.518,64.3354 169.518,64.502 172.5,65C 171.248,67.0413 170.581,69.3746 170.5,72C 170.667,74.1667 170.833,76.3333 171,78.5C 171.5,79 172,79.5 172.5,80C 169.833,80.6667 167.167,80.6667 164.5,80C 165.684,78.8197 166.351,77.3197 166.5,75.5C 166.376,71.5256 165.376,67.8589 163.5,64.5 Z"/></g>
<g><path style="opacity:1" fill="#141414" d="M 149.5,66.5 C 158.658,64.8346 162.825,68.5013 162,77.5C 157.874,84.1118 152.708,85.1118 146.5,80.5C 143.225,74.7918 144.225,70.1251 149.5,66.5 Z"/></g>
<g><path style="opacity:1" fill="#171717" d="M 183.5,64.5 C 186.522,64.9808 189.522,65.6475 192.5,66.5C 191.675,67.3857 190.675,67.719 189.5,67.5C 188.903,71.8316 188.737,76.1649 189,80.5C 193.321,76.3449 197.488,72.0116 201.5,67.5C 202.878,72.3992 203.712,77.3992 204,82.5C 206.083,83.9654 205.916,84.9654 203.5,85.5C 201.392,85.1401 199.392,84.4734 197.5,83.5C 198.853,82.4763 199.52,81.143 199.5,79.5C 197.856,79.7135 196.356,79.3802 195,78.5C 193.383,79.5358 193.216,80.7025 194.5,82C 192.765,82.6514 191.098,82.4847 189.5,81.5C 188.059,82.8651 186.726,84.3651 185.5,86C 183.167,86.6667 180.833,86.6667 178.5,86C 175.821,84.2112 175.987,83.0445 179,82.5C 182.295,85.2728 183.962,84.2728 184,79.5C 184.377,75.9813 184.877,72.4813 185.5,69C 184.926,67.3933 184.26,65.8933 183.5,64.5 Z"/></g>
<g><path style="opacity:1" fill="#f3f3f3" d="M 150.5,68.5 C 153.547,67.8554 155.713,68.8554 157,71.5C 158.004,74.9926 157.504,78.1592 155.5,81C 153.633,81.7112 152.133,81.2112 151,79.5C 149.489,75.8203 149.323,72.1536 150.5,68.5 Z"/></g>
<g><path style="opacity:1" fill="#171717" d="M 208.5,71.5 C 211.232,70.8056 213.899,71.4723 216.5,73.5C 215.456,75.7676 215.289,78.1009 216,80.5C 218.761,79.5008 220.094,77.5008 220,74.5C 221.586,75.376 223.086,76.376 224.5,77.5C 219.542,79.292 215.875,82.4587 213.5,87C 213.905,87.9454 214.572,88.6121 215.5,89C 212.147,89.2159 209.147,88.2159 206.5,86C 208.061,85.6824 209.228,84.8491 210,83.5C 210.667,79.8333 210.667,76.1667 210,72.5C 209.617,71.944 209.117,71.6107 208.5,71.5 Z"/></g>
<g><path style="opacity:1" fill="#161616" d="M 136.5,70.5 C 138.958,70.2275 140.625,71.2275 141.5,73.5C 139.674,73.9202 137.674,73.9202 135.5,73.5C 136.429,77.2843 137.762,80.951 139.5,84.5C 140.376,85.2508 141.376,85.7508 142.5,86C 140.246,87.256 137.912,88.4227 135.5,89.5C 135.249,85.4102 133.915,81.4102 131.5,77.5C 128.682,76.1185 127.182,77.1185 127,80.5C 126.044,79.4214 125.211,78.2547 124.5,77C 128.69,75.0737 132.69,72.907 136.5,70.5 Z"/></g>
<g><path style="opacity:1" fill="#282828" d="M 174.5,73.5 C 176.527,73.3379 178.527,73.5045 180.5,74C 181.337,75.0113 181.67,76.1779 181.5,77.5C 178.833,77.5 176.167,77.5 173.5,77.5C 173.433,76.0413 173.766,74.7079 174.5,73.5 Z"/></g>
<g><path style="opacity:1" fill="#d5d5d5" d="M 197.5,73.5 C 198.434,74.5676 198.768,75.901 198.5,77.5C 197.448,77.6495 196.448,77.4828 195.5,77C 196.305,75.8873 196.972,74.7206 197.5,73.5 Z"/></g>
<g><path style="opacity:1" fill="#111111" d="M 229.5,81.5 C 230.675,81.281 231.675,81.6143 232.5,82.5C 230.811,88.2529 229.811,93.9196 229.5,99.5C 227.321,98.2433 225.321,96.7433 223.5,95C 226.152,92.5941 225.652,90.7608 222,89.5C 221.033,90.6776 220.533,92.011 220.5,93.5C 219.167,92.5 217.833,91.5 216.5,90.5C 221.144,87.8404 225.477,84.8404 229.5,81.5 Z"/></g>
<g><path style="opacity:1" fill="#141414" d="M 115.5,81.5 C 124.657,80.4892 128.49,84.4892 127,93.5C 121.208,100.1 115.541,100.1 110,93.5C 109.312,88.3518 111.145,84.3518 115.5,81.5 Z"/></g>
<g><path style="opacity:1" fill="#eeeeee" d="M 115.5,83.5 C 120.725,84.8858 123.559,88.2191 124,93.5C 122.981,94.6872 121.814,95.6872 120.5,96.5C 117.81,94.644 115.644,92.3106 114,89.5C 113.252,87.1599 113.752,85.1599 115.5,83.5 Z"/></g>
<g><path style="opacity:1" fill="#bdbdbd" d="M 226.5,85.5 C 227.621,87.0894 227.454,88.7561 226,90.5C 224.198,88.7271 224.365,87.0605 226.5,85.5 Z"/></g>
<g><path style="opacity:1" fill="#1b1b1b" d="M 103.5,90.5 C 104.962,91.4577 106.295,92.6244 107.5,94C 105.285,94.1705 103.285,94.8372 101.5,96C 104.903,100.146 108.57,103.146 112.5,105C 111.056,107.449 109.222,109.615 107,111.5C 105.222,106.703 102.222,102.703 98,99.5C 96.8372,101.285 96.1705,103.285 96,105.5C 94.9783,104.646 94.1449,103.646 93.5,102.5C 96.4797,98.1886 99.813,94.1886 103.5,90.5 Z"/></g>
<g><path style="opacity:1" fill="#1d1d1d" d="M 239.5,100.5 C 239.56,99.9569 239.893,99.6236 240.5,99.5C 246.226,100.051 251.893,100.884 257.5,102C 258.684,104.685 260.517,106.852 263,108.5C 263.818,111.227 263.652,113.894 262.5,116.5C 262.025,113.074 261.025,109.908 259.5,107C 257.65,107.595 255.65,108.095 253.5,108.5C 253.5,107.167 253.5,105.833 253.5,104.5C 257.236,104.34 257.236,103.507 253.5,102C 250.306,101.408 247.139,101.574 244,102.5C 242.167,102.481 240.667,101.815 239.5,100.5 Z"/></g>
<g><path style="opacity:1" fill="#2c2c2c" d="M 176.5,130.5 C 176.5,129.167 176.5,127.833 176.5,126.5C 168.818,126.236 161.151,126.069 153.5,126C 158.956,127.527 164.289,129.027 169.5,130.5C 168.833,130.5 168.167,130.5 167.5,130.5C 162.564,130.058 157.731,129.058 153,127.5C 152.235,127.57 151.735,127.903 151.5,128.5C 151.5,128.833 151.5,129.167 151.5,129.5C 151.062,129.435 150.728,129.601 150.5,130C 151.381,130.708 152.047,131.542 152.5,132.5C 150.93,133.559 149.597,133.059 148.5,131C 150.181,129.055 150.848,127.055 150.5,125C 151.737,124.768 152.737,124.268 153.5,123.5C 161.466,124.533 169.466,125.2 177.5,125.5C 177.5,124.167 177.5,122.833 177.5,121.5C 176.5,120.833 175.5,120.167 174.5,119.5C 175.5,119.5 176.5,119.5 177.5,119.5C 177.778,117.654 177.111,116.32 175.5,115.5C 173.591,116.348 171.591,116.682 169.5,116.5C 165.025,118.202 160.359,119.535 155.5,120.5C 154.737,119.732 153.737,119.232 152.5,119C 153.167,118.667 153.833,118.333 154.5,118C 152.697,117.363 151.364,116.197 150.5,114.5C 149.653,116.061 149.986,117.561 151.5,119C 150.344,120.615 149.011,120.615 147.5,119C 148.287,117.687 147.954,116.52 146.5,115.5C 144.239,114.672 142.072,114.339 140,114.5C 139.536,115.094 139.369,115.761 139.5,116.5C 137.561,119.104 135.895,121.438 134.5,123.5C 131.539,122.817 131.205,121.984 133.5,121C 132.956,120.283 132.289,119.783 131.5,119.5C 131.443,118.391 131.11,117.391 130.5,116.5C 134.151,117.521 134.484,116.521 131.5,113.5C 131.5,112.833 131.5,112.167 131.5,111.5C 142.864,102.235 155.531,100.068 169.5,105C 177.625,110.36 180.458,117.86 178,127.5C 177.768,128.737 177.268,129.737 176.5,130.5 Z"/></g>
<g><path style="opacity:1" fill="#ececec" d="M 144.5,105.5 C 145.376,105.369 146.043,105.702 146.5,106.5C 143.724,114.315 143.057,113.982 144.5,105.5 Z"/></g>
<g><path style="opacity:1" fill="#eaeaea" d="M 153.5,103.5 C 155.199,103.34 156.866,103.506 158.5,104C 155.333,107.167 152.167,110.333 149,113.5C 150.176,110.139 151.676,106.806 153.5,103.5 Z"/></g>
<g><path style="opacity:1" fill="#d4d4d4" d="M 148.5,104.5 C 149.552,104.351 150.552,104.517 151.5,105C 149.709,107.414 148.043,109.914 146.5,112.5C 146.167,112.333 145.833,112.167 145.5,112C 146.642,109.55 147.642,107.05 148.5,104.5 Z"/></g>
<g><path style="opacity:1" fill="#e2e2e2" d="M 139.5,107.5 C 140.693,107.97 141.36,108.97 141.5,110.5C 141.167,111.5 140.833,112.5 140.5,113.5C 139.534,111.604 139.201,109.604 139.5,107.5 Z"/></g>
<g><path style="opacity:1" fill="#d5d5d5" d="M 159.5,104.5 C 160.873,104.343 162.207,104.51 163.5,105C 160.152,108.155 156.486,110.488 152.5,112C 155.039,109.63 157.372,107.13 159.5,104.5 Z"/></g>
<g><path style="opacity:1" fill="#dadada" d="M 164.5,105.5 C 167.999,105.259 168.332,106.092 165.5,108C 162.623,109.946 159.623,111.279 156.5,112C 159.355,109.969 162.022,107.803 164.5,105.5 Z"/></g>
<g><path style="opacity:1" fill="#e4e4e4" d="M 168.5,107.5 C 169.552,107.351 170.552,107.517 171.5,108C 172.833,108.667 172.833,109.333 171.5,110C 165.938,112.63 160.271,114.63 154.5,116C 159.338,113.303 164.005,110.47 168.5,107.5 Z"/></g>
<g><path style="opacity:1" fill="#dadada" d="M 136.5,114.5 C 136.579,113.07 136.246,111.736 135.5,110.5C 136.325,109.614 137.325,109.281 138.5,109.5C 138.923,111.781 138.256,113.448 136.5,114.5 Z"/></g>
<g><path style="opacity:1" fill="#e6e6e6" d="M 169.5,116.5 C 164.788,117.018 160.121,117.518 155.5,118C 161.172,115.83 166.838,113.664 172.5,111.5C 174,111.453 175,112.119 175.5,113.5C 173.556,114.801 171.556,115.801 169.5,116.5 Z"/></g>
<g><path style="opacity:1" fill="#b8b8b8" d="M 131.5,113.5 C 134.484,116.521 134.151,117.521 130.5,116.5C 128.871,114.804 129.204,113.804 131.5,113.5 Z"/></g>
<g><path style="opacity:1" fill="#d2d2d2" d="M 136.5,114.5 C 134.732,115.507 133.399,114.841 132.5,112.5C 132.833,112.167 133.167,111.833 133.5,111.5C 134.735,112.34 135.735,113.34 136.5,114.5 Z"/></g>
<g><path style="opacity:1" fill="#171717" d="M 88.5,108.5 C 99.0404,107.197 102.874,111.53 100,121.5C 94.1586,128.394 88.8253,128.061 84,120.5C 83.2688,115.709 84.7688,111.709 88.5,108.5 Z"/></g>
<g><path style="opacity:1" fill="#f1f1f1" d="M 87.5,112.5 C 91.8027,111.796 95.3027,113.13 98,116.5C 99.1412,119.857 97.9746,121.857 94.5,122.5C 88.7912,121.176 86.4579,117.843 87.5,112.5 Z"/></g>
<g><path style="opacity:1" fill="#0d0d0d" d="M 131.5,111.5 C 131.5,112.167 131.5,112.833 131.5,113.5C 129.204,113.804 128.871,114.804 130.5,116.5C 128.897,115.323 127.564,115.489 126.5,117C 128.03,118.12 129.697,118.954 131.5,119.5C 132.289,119.783 132.956,120.283 133.5,121C 131.205,121.984 131.539,122.817 134.5,123.5C 135.895,121.438 137.561,119.104 139.5,116.5C 140.807,117.153 142.14,117.82 143.5,118.5C 144.548,117.452 145.548,116.452 146.5,115.5C 147.954,116.52 148.287,117.687 147.5,119C 149.011,120.615 150.344,120.615 151.5,119C 149.986,117.561 149.653,116.061 150.5,114.5C 151.364,116.197 152.697,117.363 154.5,118C 153.833,118.333 153.167,118.667 152.5,119C 153.737,119.232 154.737,119.732 155.5,120.5C 157.772,121.323 162.106,121.323 168.5,120.5C 169.492,120.328 170.158,120.662 170.5,121.5C 164.044,121.506 158.377,122.173 153.5,123.5C 152.737,124.268 151.737,124.768 150.5,125C 150.848,127.055 150.181,129.055 148.5,131C 149.597,133.059 150.93,133.559 152.5,132.5C 154.137,133.218 155.803,133.384 157.5,133C 155.636,131.569 153.636,130.403 151.5,129.5C 151.5,129.167 151.5,128.833 151.5,128.5C 154.09,129.128 156.423,130.295 158.5,132C 161.167,132.667 163.833,132.667 166.5,132C 167.056,131.617 167.389,131.117 167.5,130.5C 168.167,130.5 168.833,130.5 169.5,130.5C 171.874,131.686 174.208,131.686 176.5,130.5C 176.335,132.827 175.669,134.993 174.5,137C 175.423,139.041 175.756,141.208 175.5,143.5C 175.167,143.5 174.833,143.5 174.5,143.5C 174.66,141.801 174.494,140.134 174,138.5C 172.667,137.167 171.333,137.167 170,138.5C 169.685,140.586 169.185,142.586 168.5,144.5C 168.433,145.959 168.766,147.292 169.5,148.5C 168.5,148.5 167.5,148.5 166.5,148.5C 166.062,148.565 165.728,148.399 165.5,148C 168.097,147.221 168.097,146.721 165.5,146.5C 164.111,142.729 161.778,140.729 158.5,140.5C 158.167,140.5 157.833,140.5 157.5,140.5C 155.409,142.48 153.576,144.814 152,147.5C 151.275,149.157 151.775,150.157 153.5,150.5C 153.833,151.167 154.167,151.833 154.5,152.5C 152.565,151.85 150.565,151.517 148.5,151.5C 148.5,152.5 148.5,153.5 148.5,154.5C 148.167,154.5 147.833,154.5 147.5,154.5C 147.261,152.533 147.594,150.699 148.5,149C 145.577,143.161 144.243,143.327 144.5,149.5C 144.672,150.492 144.338,151.158 143.5,151.5C 143.397,145.139 142.897,138.806 142,132.5C 141.503,135.146 141.336,137.813 141.5,140.5C 140.833,138.167 140.167,135.833 139.5,133.5C 138.209,133.263 137.209,133.596 136.5,134.5C 136.5,134.833 136.5,135.167 136.5,135.5C 135.778,135.082 135.278,134.416 135,133.5C 134.536,134.094 134.369,134.761 134.5,135.5C 133.833,135.833 133.167,136.167 132.5,136.5C 132.5,135.833 132.5,135.167 132.5,134.5C 132.938,134.565 133.272,134.399 133.5,134C 131.93,132.322 130.263,130.822 128.5,129.5C 129.067,128.58 128.401,128.246 126.5,128.5C 126.918,127.778 127.584,127.278 128.5,127C 124.837,127.163 121.171,127.663 117.5,128.5C 117.167,128.5 116.833,128.5 116.5,128.5C 119.704,121.293 124.704,115.626 131.5,111.5 Z"/></g>
<g><path style="opacity:1" fill="#5a5a5a" d="M 146.5,115.5 C 145.548,116.452 144.548,117.452 143.5,118.5C 142.14,117.82 140.807,117.153 139.5,116.5C 139.369,115.761 139.536,115.094 140,114.5C 142.072,114.339 144.239,114.672 146.5,115.5 Z"/></g>
<g><path style="opacity:1" fill="#d4d4d4" d="M 130.5,116.5 C 131.11,117.391 131.443,118.391 131.5,119.5C 129.697,118.954 128.03,118.12 126.5,117C 127.564,115.489 128.897,115.323 130.5,116.5 Z"/></g>
<g><path style="opacity:1" fill="#dcdcdc" d="M 174.5,119.5 C 172.265,119.205 170.265,119.539 168.5,120.5C 162.106,121.323 157.772,121.323 155.5,120.5C 160.359,119.535 165.025,118.202 169.5,116.5C 171.591,116.682 173.591,116.348 175.5,115.5C 177.111,116.32 177.778,117.654 177.5,119.5C 176.5,119.5 175.5,119.5 174.5,119.5 Z"/></g>
<g><path style="opacity:1" fill="#353535" d="M 198.5,114.5 C 199.124,114.917 199.457,115.584 199.5,116.5C 198.768,119.197 197.934,121.864 197,124.5C 196.54,121.038 197.04,117.704 198.5,114.5 Z"/></g>
<g><path style="opacity:1" fill="#616161" d="M 168.5,120.5 C 170.265,119.539 172.265,119.205 174.5,119.5C 175.5,120.167 176.5,120.833 177.5,121.5C 175.167,121.5 172.833,121.5 170.5,121.5C 170.158,120.662 169.492,120.328 168.5,120.5 Z"/></g>
<g><path style="opacity:1" fill="#989898" d="M 124.5,118.5 C 132.208,119.993 132.374,121.659 125,123.5C 123.5,123.333 122,123.167 120.5,123C 122.623,121.806 124.957,121.14 127.5,121C 126.167,120.667 124.833,120.333 123.5,120C 124.056,119.617 124.389,119.117 124.5,118.5 Z"/></g>
<g><path style="opacity:1" fill="#e8e8e8" d="M 170.5,121.5 C 172.833,121.5 175.167,121.5 177.5,121.5C 177.5,122.833 177.5,124.167 177.5,125.5C 169.466,125.2 161.466,124.533 153.5,123.5C 158.377,122.173 164.044,121.506 170.5,121.5 Z"/></g>
<g><path style="opacity:1" fill="#1c1c1c" d="M 209.5,120.5 C 212.001,120.511 212.168,121.178 210,122.5C 209.536,121.906 209.369,121.239 209.5,120.5 Z"/></g>
<g><path style="opacity:1" fill="#717171" d="M 188.5,120.5 C 189.814,122.915 190.481,125.748 190.5,129C 190.167,131.833 189.833,134.667 189.5,137.5C 188.505,131.872 188.171,126.206 188.5,120.5 Z"/></g>
<g><path style="opacity:1" fill="#b2b2b2" d="M 119.5,124.5 C 122.518,124.335 125.518,124.502 128.5,125C 125.266,125.711 122.099,126.545 119,127.5C 118.53,126.423 118.697,125.423 119.5,124.5 Z"/></g>
<g><path style="opacity:1" fill="#e5e5e5" d="M 176.5,130.5 C 174.208,131.686 171.874,131.686 169.5,130.5C 164.289,129.027 158.956,127.527 153.5,126C 161.151,126.069 168.818,126.236 176.5,126.5C 176.5,127.833 176.5,129.167 176.5,130.5 Z"/></g>
<g><path style="opacity:1" fill="#131313" d="M 78.5,123.5 C 80.4824,125.597 81.4824,128.264 81.5,131.5C 85.8528,130.704 90.0195,129.371 94,127.5C 94.0786,130.37 93.2453,133.036 91.5,135.5C 90.8333,134.833 90.1667,134.167 89.5,133.5C 82.7008,134.364 82.2008,136.03 88,138.5C 88.772,138.355 89.4387,138.022 90,137.5C 90.0786,140.37 89.2453,143.036 87.5,145.5C 86.8333,144.5 86.1667,143.5 85.5,142.5C 82.2606,141.296 79.094,139.962 76,138.5C 73.6902,140.918 73.0236,140.252 74,136.5C 74.7393,134.779 75.5726,133.113 76.5,131.5C 77.0045,134.342 78.6711,135.675 81.5,135.5C 81.5653,131.456 79.8987,129.456 76.5,129.5C 77.7472,127.677 78.4139,125.677 78.5,123.5 Z"/></g>
<g><path style="opacity:1" fill="#d1d1d1" d="M 126.5,128.5 C 123.314,128.895 120.314,129.895 117.5,131.5C 116.438,130.575 116.438,129.575 117.5,128.5C 121.171,127.663 124.837,127.163 128.5,127C 127.584,127.278 126.918,127.778 126.5,128.5 Z"/></g>
<g><path style="opacity:1" fill="#e1e1e1" d="M 151.5,128.5 C 151.735,127.903 152.235,127.57 153,127.5C 157.731,129.058 162.564,130.058 167.5,130.5C 167.389,131.117 167.056,131.617 166.5,132C 163.833,132.667 161.167,132.667 158.5,132C 156.423,130.295 154.09,129.128 151.5,128.5 Z"/></g>
<g><path style="opacity:1" fill="#393939" d="M 195.5,126.5 C 196.782,127.708 196.782,129.042 195.5,130.5C 194.374,129.192 194.374,127.858 195.5,126.5 Z"/></g>
<g><path style="opacity:1" fill="#c0c0c0" d="M 151.5,129.5 C 153.636,130.403 155.636,131.569 157.5,133C 155.803,133.384 154.137,133.218 152.5,132.5C 152.047,131.542 151.381,130.708 150.5,130C 150.728,129.601 151.062,129.435 151.5,129.5 Z"/></g>
<g><path style="opacity:1" fill="#2a2a2a" d="M 207.5,123.5 C 208.239,123.369 208.906,123.536 209.5,124C 206.462,126.703 203.795,129.703 201.5,133C 200.833,133.667 200.167,133.667 199.5,133C 202.002,129.667 204.668,126.501 207.5,123.5 Z"/></g>
<g><path style="opacity:1" fill="#1e1e1e" d="M 213.5,129.5 C 216.001,129.511 216.168,130.178 214,131.5C 213.536,130.906 213.369,130.239 213.5,129.5 Z"/></g>
<g><path style="opacity:1" fill="#d9d9d9" d="M 126.5,128.5 C 128.401,128.246 129.067,128.58 128.5,129.5C 123.945,132.029 119.445,134.696 115,137.5C 114.289,135.633 114.789,134.133 116.5,133C 120.061,131.768 123.394,130.268 126.5,128.5 Z"/></g>
<g><path style="opacity:1" fill="#393939" d="M 182.5,117.5 C 184.007,122.158 185.341,126.991 186.5,132C 186.167,132.5 185.833,133 185.5,133.5C 183.854,128.291 182.854,122.957 182.5,117.5 Z"/></g>
<g><path style="opacity:1" fill="#1d1d1d" d="M 254.5,115.5 C 256.722,115.178 258.556,115.845 260,117.5C 260.878,120.709 262.211,123.709 264,126.5C 266.58,124.747 269.413,123.747 272.5,123.5C 272.397,126.219 272.731,128.885 273.5,131.5C 273.167,132.167 272.833,132.833 272.5,133.5C 271.645,131.392 270.978,129.226 270.5,127C 269.667,125.216 268.667,125.216 267.5,127C 268.687,128.019 269.687,129.186 270.5,130.5C 269.726,131.711 268.893,131.711 268,130.5C 267.506,132.134 267.34,133.801 267.5,135.5C 269.989,135.298 272.323,135.798 274.5,137C 277.129,139.79 279.129,142.957 280.5,146.5C 279.74,148.437 278.74,150.27 277.5,152C 281.421,153.005 282.921,155.505 282,159.5C 281.667,159.167 281.333,158.833 281,158.5C 281.406,163.452 279.739,167.452 276,170.5C 275.529,168.754 274.862,167.087 274,165.5C 272.992,165.018 271.825,164.852 270.5,165C 268.787,163.075 267.453,160.908 266.5,158.5C 264.059,156.728 261.392,155.394 258.5,154.5C 256.744,152.809 256.244,150.809 257,148.5C 257.333,149.5 257.667,150.5 258,151.5C 268.68,159.946 275.347,157.613 278,144.5C 273.906,136.809 268.072,135.309 260.5,140C 259.072,141.916 258.072,144.083 257.5,146.5C 256.948,144.997 256.948,143.331 257.5,141.5C 253.549,141.715 251.216,139.882 250.5,136C 250.756,132.678 251.756,129.678 253.5,127C 248.697,124.942 248.697,122.442 253.5,119.5C 254.429,118.311 254.762,116.978 254.5,115.5 Z"/></g>
<g><path style="opacity:1" fill="#e5e5e5" d="M 256.5,117.5 C 258.176,118.183 258.843,119.517 258.5,121.5C 254.058,121.884 253.724,122.884 257.5,124.5C 259.367,121.771 260.367,122.104 260.5,125.5C 258.94,125.519 257.44,125.852 256,126.5C 254.681,125.681 253.515,124.681 252.5,123.5C 254.503,121.867 255.836,119.867 256.5,117.5 Z"/></g>
<g><path style="opacity:1" fill="#a0a0a0" d="M 143.5,132.5 C 145.088,133.635 145.421,134.969 144.5,136.5C 143.571,135.311 143.238,133.978 143.5,132.5 Z"/></g>
<g><path style="opacity:1" fill="#343434" d="M 193.5,131.5 C 194.497,131.47 195.164,131.97 195.5,133C 195.122,134.635 194.456,136.135 193.5,137.5C 192.769,135.599 192.769,133.599 193.5,131.5 Z"/></g>
<g><path style="opacity:1" fill="#808080" d="M 207.5,135.5 C 207.5,134.833 207.167,134.5 206.5,134.5C 208.179,132.825 210.179,131.992 212.5,132C 211.154,133.669 209.487,134.836 207.5,135.5 Z"/></g>
<g><path style="opacity:1" fill="#ebebeb" d="M 143.5,151.5 C 143.5,153.5 143.5,155.5 143.5,157.5C 142.5,157.5 141.5,157.5 140.5,157.5C 140.5,156.5 140.5,155.5 140.5,154.5C 141.486,150.03 141.819,145.363 141.5,140.5C 141.336,137.813 141.503,135.146 142,132.5C 142.897,138.806 143.397,145.139 143.5,151.5 Z"/></g>
<g><path style="opacity:1" fill="#eaeaea" d="M 258.5,128.5 C 260.223,127.193 262.057,127.193 264,128.5C 265.079,131.063 265.579,133.729 265.5,136.5C 262.309,136.762 259.642,138.095 257.5,140.5C 256.205,139.902 254.872,139.402 253.5,139C 252.39,136.263 252.223,133.429 253,130.5C 254.049,128.893 255.549,128.227 257.5,128.5C 257.421,129.93 257.754,131.264 258.5,132.5C 257.167,133.167 255.833,133.833 254.5,134.5C 257.646,138.605 260.313,138.272 262.5,133.5C 261.675,132.614 260.675,132.281 259.5,132.5C 259.768,130.901 259.434,129.568 258.5,128.5 Z"/></g>
<g><path style="opacity:1" fill="#bebebe" d="M 300.5,134.5 C 301.495,145.988 301.828,157.655 301.5,169.5C 325.5,169.833 325.5,170.167 301.5,170.5C 301.167,218.5 300.833,218.5 300.5,170.5C 293.833,170.167 293.833,169.833 300.5,169.5C 300.5,157.833 300.5,146.167 300.5,134.5 Z"/></g>
<g><path style="opacity:1" fill="#bebebe" d="M 37.5,134.5 C 38.4949,145.988 38.8283,157.655 38.5,169.5C 46.5,169.833 46.5,170.167 38.5,170.5C 38.1667,218.5 37.8333,218.5 37.5,170.5C 14.8333,170.167 14.8333,169.833 37.5,169.5C 37.5,157.833 37.5,146.167 37.5,134.5 Z"/></g>
<g><path style="opacity:1" fill="#212121" d="M 197.5,134.5 C 198.559,136.07 198.059,137.403 196,138.5C 195.7,136.934 196.2,135.601 197.5,134.5 Z"/></g>
<g><path style="opacity:1" fill="#282828" d="M 116.5,128.5 C 116.833,128.5 117.167,128.5 117.5,128.5C 116.438,129.575 116.438,130.575 117.5,131.5C 120.314,129.895 123.314,128.895 126.5,128.5C 123.394,130.268 120.061,131.768 116.5,133C 114.789,134.133 114.289,135.633 115,137.5C 119.445,134.696 123.945,132.029 128.5,129.5C 130.263,130.822 131.93,132.322 133.5,134C 133.272,134.399 132.938,134.565 132.5,134.5C 127.366,139.805 122.366,145.305 117.5,151C 118.667,152.167 119.833,153.333 121,154.5C 124.302,148.058 128.135,142.058 132.5,136.5C 129.624,142.721 126.291,148.721 122.5,154.5C 123.347,155.845 124.513,156.845 126,157.5C 129.334,150.327 132.167,142.994 134.5,135.5C 134.369,134.761 134.536,134.094 135,133.5C 135.278,134.416 135.778,135.082 136.5,135.5C 133.939,142.344 131.273,149.177 128.5,156C 129.619,157.876 131.286,158.709 133.5,158.5C 134.445,151.108 135.778,143.775 137.5,136.5C 137.457,135.584 137.124,134.917 136.5,134.5C 137.209,133.596 138.209,133.263 139.5,133.5C 139.443,134.609 139.11,135.609 138.5,136.5C 137.68,143.599 136.347,150.599 134.5,157.5C 136.045,158.452 137.712,158.785 139.5,158.5C 139.5,155.5 139.5,152.5 139.5,149.5C 140.451,150.919 140.784,152.585 140.5,154.5C 140.5,155.5 140.5,156.5 140.5,157.5C 141.5,157.5 142.5,157.5 143.5,157.5C 144.652,156.375 145.652,156.375 146.5,157.5C 145.766,158.708 145.433,160.041 145.5,161.5C 144.833,162.833 144.167,164.167 143.5,165.5C 143.318,163.409 143.652,161.409 144.5,159.5C 144,159.167 143.5,158.833 143,158.5C 140.205,159.185 137.372,159.685 134.5,160C 137.453,162.752 139.786,165.918 141.5,169.5C 140.222,169.218 139.222,168.551 138.5,167.5C 137.088,165.02 135.422,162.687 133.5,160.5C 130.212,159.555 126.879,158.888 123.5,158.5C 123.081,161.325 124.081,163.491 126.5,165C 129.353,166.43 132.353,167.263 135.5,167.5C 136.5,168.167 137.5,168.833 138.5,169.5C 131.871,169.767 126.371,167.434 122,162.5C 121.504,160.965 121.67,159.465 122.5,158C 111.834,149.779 109.834,139.946 116.5,128.5 Z"/></g>
<g><path style="opacity:1" fill="#e7e7e7" d="M 129.5,132.5 C 130.525,132.897 130.692,133.563 130,134.5C 125.667,139.5 121.333,144.5 117,149.5C 115.56,148.07 115.226,146.403 116,144.5C 120.694,140.635 125.194,136.635 129.5,132.5 Z"/></g>
<g><path style="opacity:1" fill="#e3e3e3" d="M 126.5,131.5 C 127.239,131.369 127.906,131.536 128.5,132C 124,135.833 119.5,139.667 115,143.5C 114.202,141.741 114.369,140.074 115.5,138.5C 119.475,136.501 123.141,134.168 126.5,131.5 Z"/></g>
<g><path style="opacity:1" fill="#f0f0f0" d="M 138.5,136.5 C 139.485,140.634 139.818,144.968 139.5,149.5C 139.5,152.5 139.5,155.5 139.5,158.5C 137.712,158.785 136.045,158.452 134.5,157.5C 136.347,150.599 137.68,143.599 138.5,136.5 Z"/></g>
<g><path style="opacity:1" fill="#292929" d="M 206.5,134.5 C 207.167,134.5 207.5,134.833 207.5,135.5C 204.19,137.377 200.857,138.877 197.5,140C 200.222,137.642 203.222,135.809 206.5,134.5 Z"/></g>
<g><path style="opacity:1" fill="#e9e9e9" d="M 132.5,134.5 C 132.5,135.167 132.5,135.833 132.5,136.5C 128.135,142.058 124.302,148.058 121,154.5C 119.833,153.333 118.667,152.167 117.5,151C 122.366,145.305 127.366,139.805 132.5,134.5 Z"/></g>
<g><path style="opacity:1" fill="#ebebeb" d="M 136.5,134.5 C 137.124,134.917 137.457,135.584 137.5,136.5C 135.778,143.775 134.445,151.108 133.5,158.5C 131.286,158.709 129.619,157.876 128.5,156C 131.273,149.177 133.939,142.344 136.5,135.5C 136.5,135.167 136.5,134.833 136.5,134.5 Z"/></g>
<g><path style="opacity:1" fill="#626262" d="M 212.5,139.5 C 214.337,139.639 214.67,140.306 213.5,141.5C 212.702,141.043 212.369,140.376 212.5,139.5 Z"/></g>
<g><path style="opacity:1" fill="#1f1f1f" d="M 265.5,140.5 C 266.859,141.007 267.859,142.007 268.5,143.5C 273.088,142.177 273.422,142.677 269.5,145C 271.002,145.583 272.335,146.416 273.5,147.5C 271.328,147.676 268.995,147.843 266.5,148C 265.696,149.771 264.529,151.271 263,152.5C 262.405,151.101 262.572,149.768 263.5,148.5C 261.076,146.286 261.743,145.286 265.5,145.5C 265.5,143.833 265.5,142.167 265.5,140.5 Z"/></g>
<g><path style="opacity:1" fill="#e9e9e9" d="M 134.5,135.5 C 132.167,142.994 129.334,150.327 126,157.5C 124.513,156.845 123.347,155.845 122.5,154.5C 126.291,148.721 129.624,142.721 132.5,136.5C 133.167,136.167 133.833,135.833 134.5,135.5 Z"/></g>
<g><path style="opacity:1" fill="#e5e5e5" d="M 157.5,140.5 C 157.414,141.496 157.748,142.329 158.5,143C 156.109,144.309 156.109,145.309 158.5,146C 156.98,147.728 155.314,149.228 153.5,150.5C 151.775,150.157 151.275,149.157 152,147.5C 153.576,144.814 155.409,142.48 157.5,140.5 Z"/></g>
<g><path style="opacity:1" fill="#dcdcdc" d="M 158.5,140.5 C 161.778,140.729 164.111,142.729 165.5,146.5C 164.504,146.414 163.671,146.748 163,147.5C 160.495,145.676 158.995,143.343 158.5,140.5 Z"/></g>
<g><path style="opacity:1" fill="#2a2a2a" d="M 205.5,140.5 C 207.199,140.34 208.866,140.506 210.5,141C 206.65,142.704 202.65,143.371 198.5,143C 200.927,142.098 203.26,141.264 205.5,140.5 Z"/></g>
<g><path style="opacity:1" fill="#cdcdcd" d="M 174.5,143.5 C 173.244,143.904 172.077,144.571 171,145.5C 170.098,145.257 169.265,144.923 168.5,144.5C 169.185,142.586 169.685,140.586 170,138.5C 171.333,137.167 172.667,137.167 174,138.5C 174.494,140.134 174.66,141.801 174.5,143.5 Z"/></g>
<g><path style="opacity:1" fill="#606060" d="M 139.5,133.5 C 140.167,135.833 140.833,138.167 141.5,140.5C 141.819,145.363 141.486,150.03 140.5,154.5C 140.784,152.585 140.451,150.919 139.5,149.5C 139.818,144.968 139.485,140.634 138.5,136.5C 139.11,135.609 139.443,134.609 139.5,133.5 Z"/></g>
<g><path style="opacity:1" fill="#e2e2e2" d="M 147.5,154.5 C 146.883,154.611 146.383,154.944 146,155.5C 145.809,153.292 145.309,151.292 144.5,149.5C 144.243,143.327 145.577,143.161 148.5,149C 147.594,150.699 147.261,152.533 147.5,154.5 Z"/></g>
<g><path style="opacity:1" fill="#4a4a4a" d="M 144.5,149.5 C 145.309,151.292 145.809,153.292 146,155.5C 146.383,154.944 146.883,154.611 147.5,154.5C 147.833,154.5 148.167,154.5 148.5,154.5C 152.438,154.635 155.772,156.135 158.5,159C 155.527,157.784 152.36,156.617 149,155.5C 147.989,156.056 147.156,156.722 146.5,157.5C 145.652,156.375 144.652,156.375 143.5,157.5C 143.5,155.5 143.5,153.5 143.5,151.5C 144.338,151.158 144.672,150.492 144.5,149.5 Z"/></g>
<g><path style="opacity:1" fill="#272727" d="M 203.5,185.5 C 203.5,186.167 203.5,186.833 203.5,187.5C 197.484,195.848 190.151,202.848 181.5,208.5C 180.833,208.5 180.5,208.167 180.5,207.5C 183.824,205.833 186.824,203.666 189.5,201C 187.632,200.996 185.798,201.496 184,202.5C 182.493,201.445 180.993,200.445 179.5,199.5C 176.93,198.516 176.93,197.349 179.5,196C 177.807,195.153 176.14,194.32 174.5,193.5C 174.577,192.25 175.244,191.417 176.5,191C 175.167,190.333 173.833,189.667 172.5,189C 174.481,188.395 174.815,187.395 173.5,186C 171.636,184.594 169.803,184.094 168,184.5C 167.506,182.866 167.34,181.199 167.5,179.5C 165.549,179.773 164.049,179.107 163,177.5C 161.653,179.193 161.153,180.86 161.5,182.5C 159.925,181.544 158.258,180.877 156.5,180.5C 156.082,179.778 155.416,179.278 154.5,179C 156.545,178.07 157.379,176.57 157,174.5C 156.667,174.833 156.333,175.167 156,175.5C 154.333,174.167 152.667,172.833 151,171.5C 149.143,173.48 148.31,175.48 148.5,177.5C 144.486,177.666 140.486,177.499 136.5,177C 138.473,176.505 140.473,176.338 142.5,176.5C 142.671,173.203 142.005,172.869 140.5,175.5C 139.365,174.897 138.365,174.564 137.5,174.5C 138.16,172.185 139.493,170.519 141.5,169.5C 144.909,169.249 148.242,169.583 151.5,170.5C 152.396,167.856 153.229,165.19 154,162.5C 155.444,160.845 157.278,160.178 159.5,160.5C 159.649,159.448 159.483,158.448 159,157.5C 157.293,155.963 155.793,154.296 154.5,152.5C 154.167,151.833 153.833,151.167 153.5,150.5C 155.314,149.228 156.98,147.728 158.5,146C 156.109,145.309 156.109,144.309 158.5,143C 157.748,142.329 157.414,141.496 157.5,140.5C 157.833,140.5 158.167,140.5 158.5,140.5C 158.995,143.343 160.495,145.676 163,147.5C 163.671,146.748 164.504,146.414 165.5,146.5C 168.097,146.721 168.097,147.221 165.5,148C 165.728,148.399 166.062,148.565 166.5,148.5C 165.947,152.456 165.114,152.456 164,148.5C 160.477,152.447 159.643,152.447 161.5,148.5C 160.32,145.919 159.32,146.086 158.5,149C 157.552,149.483 156.552,149.649 155.5,149.5C 155.413,152.598 155.913,152.932 157,150.5C 158.353,151.685 159.52,153.019 160.5,154.5C 161.52,151.757 163.186,151.09 165.5,152.5C 166.938,152.281 168.271,151.781 169.5,151C 170.598,150.23 170.598,149.397 169.5,148.5C 168.766,147.292 168.433,145.959 168.5,144.5C 169.265,144.923 170.098,145.257 171,145.5C 172.077,144.571 173.244,143.904 174.5,143.5C 174.833,143.5 175.167,143.5 175.5,143.5C 175.489,145.017 174.823,146.184 173.5,147C 175.754,148.377 177.92,149.877 180,151.5C 181.233,146.699 183.733,142.699 187.5,139.5C 188.478,139.977 189.311,140.643 190,141.5C 190.333,143.833 190.667,146.167 191,148.5C 192.699,147.594 194.533,147.261 196.5,147.5C 196.197,151.774 194.53,155.441 191.5,158.5C 192.167,159.167 192.833,159.833 193.5,160.5C 192.833,162.5 192.167,164.5 191.5,166.5C 193.889,167.602 195.723,169.269 197,171.5C 198.851,177.008 199.851,182.675 200,188.5C 201.039,187.29 202.206,186.29 203.5,185.5 Z"/></g>
<g><path style="opacity:1" fill="#e3e3e3" d="M 173.5,150.5 C 175.223,150.392 176.89,150.892 178.5,152C 176.707,153.78 175.04,155.613 173.5,157.5C 173.295,155.448 173.295,153.114 173.5,150.5 Z"/></g>
<g><path style="opacity:1" fill="#cacaca" d="M 171.5,151.5 C 172.404,152.209 172.737,153.209 172.5,154.5C 168.995,154.306 168.662,153.306 171.5,151.5 Z"/></g>
<g><path style="opacity:1" fill="#767676" d="M 182.5,151.5 C 183.791,151.263 184.791,151.596 185.5,152.5C 184.934,154.078 183.934,155.412 182.5,156.5C 181.212,154.701 181.212,153.035 182.5,151.5 Z"/></g>
<g><path style="opacity:1" fill="#c8c8c8" d="M 166.5,148.5 C 167.5,148.5 168.5,148.5 169.5,148.5C 170.598,149.397 170.598,150.23 169.5,151C 168.271,151.781 166.938,152.281 165.5,152.5C 163.186,151.09 161.52,151.757 160.5,154.5C 159.52,153.019 158.353,151.685 157,150.5C 155.913,152.932 155.413,152.598 155.5,149.5C 156.552,149.649 157.552,149.483 158.5,149C 159.32,146.086 160.32,145.919 161.5,148.5C 159.643,152.447 160.477,152.447 164,148.5C 165.114,152.456 165.947,152.456 166.5,148.5 Z"/></g>
<g><path style="opacity:1" fill="#eeeeee" d="M 192.5,148.5 C 194.344,149.204 194.844,150.537 194,152.5C 192.022,155.645 189.522,158.312 186.5,160.5C 184.876,159.131 184.376,157.464 185,155.5C 185.667,156.167 186.333,156.833 187,157.5C 187,156.167 187,154.833 187,153.5C 188,152.167 189,152.167 190,153.5C 190.366,151.548 191.199,149.882 192.5,148.5 Z"/></g>
<g><path style="opacity:1" fill="#cacaca" d="M 185.5,152.5 C 184.791,151.596 183.791,151.263 182.5,151.5C 182.578,147.344 184.245,144.011 187.5,141.5C 188.452,143.045 188.785,144.712 188.5,146.5C 187.127,146.343 185.793,146.51 184.5,147C 190.221,148.457 190.555,150.291 185.5,152.5 Z"/></g>
<g><path style="opacity:1" fill="#e6e6e6" d="M 178.5,153.5 C 179.376,153.369 180.043,153.702 180.5,154.5C 178.192,155.873 177.525,155.54 178.5,153.5 Z"/></g>
<g><path style="opacity:1" fill="#d6d6d6" d="M 277.5,158.5 C 274.452,155.496 275.118,154.33 279.5,155C 279.833,155.333 280.167,155.667 280.5,156C 279.429,156.852 278.429,157.685 277.5,158.5 Z"/></g>
<g><path style="opacity:1" fill="#f1f1f1" d="M 154.5,152.5 C 155.793,154.296 157.293,155.963 159,157.5C 159.483,158.448 159.649,159.448 159.5,160.5C 157.278,160.178 155.444,160.845 154,162.5C 153.229,165.19 152.396,167.856 151.5,170.5C 148.242,169.583 144.909,169.249 141.5,169.5C 139.786,165.918 137.453,162.752 134.5,160C 137.372,159.685 140.205,159.185 143,158.5C 143.5,158.833 144,159.167 144.5,159.5C 143.652,161.409 143.318,163.409 143.5,165.5C 143.461,166.756 143.961,167.756 145,168.5C 145.497,166.19 145.663,163.857 145.5,161.5C 145.433,160.041 145.766,158.708 146.5,157.5C 147.156,156.722 147.989,156.056 149,155.5C 152.36,156.617 155.527,157.784 158.5,159C 155.772,156.135 152.438,154.635 148.5,154.5C 148.5,153.5 148.5,152.5 148.5,151.5C 150.565,151.517 152.565,151.85 154.5,152.5 Z"/></g>
<g><path style="opacity:1" fill="#212121" d="M 77.5,150.5 C 78.4972,150.47 79.1639,150.97 79.5,152C 78.7636,154.139 77.7636,156.139 76.5,158C 82.0901,161.368 81.7568,163.535 75.5,164.5C 75.7192,160.473 74.5525,159.806 72,162.5C 69.9653,169.098 72.132,173.432 78.5,175.5C 73.906,177.104 71.0727,175.437 70,170.5C 68.1093,164.519 69.9426,160.186 75.5,157.5C 76.9459,155.382 77.6126,153.049 77.5,150.5 Z"/></g>
<g><path style="opacity:1" fill="#f5f5f5" d="M 138.5,167.5 C 137.5,167.5 136.5,167.5 135.5,167.5C 132.353,167.263 129.353,166.43 126.5,165C 124.081,163.491 123.081,161.325 123.5,158.5C 126.879,158.888 130.212,159.555 133.5,160.5C 135.422,162.687 137.088,165.02 138.5,167.5 Z"/></g>
<g><path style="opacity:1" fill="#e8e8e8" d="M 177.5,161.5 C 176.859,160.518 176.193,159.518 175.5,158.5C 175.833,158.167 176.167,157.833 176.5,157.5C 179.283,158.463 181.95,159.63 184.5,161C 182.19,161.497 179.857,161.663 177.5,161.5 Z"/></g>
<g><path style="opacity:1" fill="#c7c7c7" d="M 76.5,160.5 C 78.4646,160.948 78.7979,161.948 77.5,163.5C 76.6143,162.675 76.281,161.675 76.5,160.5 Z"/></g>
<g><path style="opacity:1" fill="#c0c0c0" d="M 171.5,159.5 C 172.5,159.5 173.5,159.5 174.5,159.5C 174.354,164.421 173.354,164.421 171.5,159.5 Z"/></g>
<g><path style="opacity:1" fill="#d7d7d7" d="M 277.5,158.5 C 278.83,161.44 278.663,164.44 277,167.5C 275.441,165.783 274.608,163.783 274.5,161.5C 273.07,161.421 271.736,161.754 270.5,162.5C 269.571,161.311 269.238,159.978 269.5,158.5C 271.226,158.185 272.893,158.019 274.5,158C 276.153,163.254 277.153,163.421 277.5,158.5 Z"/></g>
<g><path style="opacity:1" fill="#f3f3f3" d="M 163.5,174.5 C 160.039,173.269 156.706,171.769 153.5,170C 155.848,169.89 157.348,168.723 158,166.5C 158.815,168.623 159.815,170.623 161,172.5C 160.543,168.216 160.543,163.882 161,159.5C 161.233,157.22 162.066,155.22 163.5,153.5C 166.07,154.634 168.736,155.468 171.5,156C 170.167,158 168.833,160 167.5,162C 159.5,163 159.5,164 167.5,165C 168.43,166.194 169.097,167.527 169.5,169C 167.197,170.626 165.197,172.459 163.5,174.5 Z"/></g>
<g><path style="opacity:1" fill="#d8d8d8" d="M 155.5,162.5 C 156.788,164.035 156.788,165.701 155.5,167.5C 154.566,165.905 154.566,164.239 155.5,162.5 Z"/></g>
<g><path style="opacity:1" fill="#666666" d="M 145.5,161.5 C 145.663,163.857 145.497,166.19 145,168.5C 143.961,167.756 143.461,166.756 143.5,165.5C 144.167,164.167 144.833,162.833 145.5,161.5 Z"/></g>
<g><path style="opacity:1" fill="#242424" d="M 245.5,181.5 C 245.261,179.533 245.594,177.699 246.5,176C 244.5,175.667 242.5,175.333 240.5,175C 239,173.5 237.5,172 236,170.5C 235.5,171 235,171.5 234.5,172C 236.749,173.745 238.416,175.912 239.5,178.5C 240.167,178.167 240.833,177.833 241.5,177.5C 242.614,178.723 242.781,180.056 242,181.5C 237.997,186.335 233.83,191.002 229.5,195.5C 228.475,195.103 228.308,194.437 229,193.5C 232.833,189.667 236.667,185.833 240.5,182C 234.796,181.47 229.129,181.803 223.5,183C 225.326,187.293 226.326,191.793 226.5,196.5C 226.167,196.5 225.833,196.5 225.5,196.5C 224.5,191.833 223.5,187.167 222.5,182.5C 217.482,182.613 212.482,182.947 207.5,183.5C 207.565,183.062 207.399,182.728 207,182.5C 205.961,183.71 204.794,184.71 203.5,185.5C 204.677,183.897 204.511,182.564 203,181.5C 202.839,176.866 202.006,172.366 200.5,168C 200.682,157.65 205.682,150.817 215.5,147.5C 217.783,139.901 221.783,133.568 227.5,128.5C 231.583,129.754 234.583,132.254 236.5,136C 233.004,140.329 229.337,144.496 225.5,148.5C 227.149,149.648 228.649,150.981 230,152.5C 231,156.167 232,159.833 233,163.5C 236.03,166.296 238.53,169.463 240.5,173C 246.672,172.329 249.006,174.829 247.5,180.5C 246.817,180.863 246.15,181.196 245.5,181.5 Z"/></g>
<g><path style="opacity:1" fill="#dcdcdc" d="M 202.5,166.5 C 207.814,166.239 208.314,166.906 204,168.5C 202.97,168.164 202.47,167.497 202.5,166.5 Z"/></g>
<g><path style="opacity:1" fill="#f2f2f2" d="M 232.5,178.5 C 228.833,178.5 225.167,178.5 221.5,178.5C 221.322,177.305 220.989,176.138 220.5,175C 222.524,172.119 223.857,168.953 224.5,165.5C 222.752,168.431 220.752,171.264 218.5,174C 214.812,174.45 211.146,174.283 207.5,173.5C 207.242,166.301 209.909,160.634 215.5,156.5C 215.333,156.167 215.167,155.833 215,155.5C 211.017,157.298 208.683,160.298 208,164.5C 206.186,165.76 204.353,165.76 202.5,164.5C 204.016,155.982 209.016,150.648 217.5,148.5C 218.167,148.667 218.833,148.833 219.5,149C 218.202,151.395 219.035,152.562 222,152.5C 224.702,149.669 227.035,150.002 229,153.5C 228.621,158.422 230.121,162.588 233.5,166C 231.144,170.286 228.644,170.453 226,166.5C 226.195,168.745 227.362,170.578 229.5,172C 233.007,172.661 235.674,174.495 237.5,177.5C 235.955,178.452 234.288,178.785 232.5,178.5 Z"/></g>
<g><path style="opacity:1" fill="#101010" d="M 217.5,164.5 C 219.337,164.639 219.67,165.306 218.5,166.5C 217.702,166.043 217.369,165.376 217.5,164.5 Z"/></g>
<g><path style="opacity:1" fill="#303030" d="M 224.5,165.5 C 224.673,162.821 225.673,160.487 227.5,158.5C 227.833,158.833 228.167,159.167 228.5,159.5C 227.34,161.711 226.007,163.711 224.5,165.5 Z"/></g>
<g><path style="opacity:1" fill="#616161" d="M 219.5,159.5 C 221.337,159.639 221.67,160.306 220.5,161.5C 219.702,161.043 219.369,160.376 219.5,159.5 Z"/></g>
<g><path style="opacity:1" fill="#5d5d5d" d="M 220.5,154.5 C 222.337,154.639 222.67,155.306 221.5,156.5C 220.702,156.043 220.369,155.376 220.5,154.5 Z"/></g>
<g><path style="opacity:1" fill="#d4d4d4" d="M 219.5,140.5 C 220.5,140.5 221.5,140.5 222.5,140.5C 222.269,144.055 223.602,145.555 226.5,145C 224.667,146.167 223.167,147.667 222,149.5C 220.115,147.534 218.948,145.534 218.5,143.5C 219.127,142.583 219.461,141.583 219.5,140.5 Z"/></g>
<g><path style="opacity:1" fill="#f5f5f5" d="M 226.5,130.5 C 228.339,131.582 230.339,132.415 232.5,133C 232.043,133.414 231.709,133.914 231.5,134.5C 232.5,135.167 233.5,135.833 234.5,136.5C 232.833,138.833 230.833,140.833 228.5,142.5C 226.329,140.828 224.329,138.995 222.5,137C 223.713,134.738 225.046,132.571 226.5,130.5 Z"/></g>
<g><path style="opacity:1" fill="#dcdcdc" d="M 233.5,167.5 C 235.885,168.867 235.552,170.201 232.5,171.5C 232.167,171.167 231.833,170.833 231.5,170.5C 232.193,169.482 232.859,168.482 233.5,167.5 Z"/></g>
<g><path style="opacity:1" fill="#191919" d="M 126.5,170.5 C 126.5,171.167 126.167,171.5 125.5,171.5C 124.504,171.586 123.671,171.252 123,170.5C 122.333,168.833 122.333,167.167 123,165.5C 123.333,166.833 123.667,168.167 124,169.5C 124.671,170.252 125.504,170.586 126.5,170.5 Z"/></g>
<g><path style="opacity:1" fill="#575757" d="M 126.5,170.5 C 130.167,170.5 133.833,170.5 137.5,170.5C 137.443,171.609 137.11,172.609 136.5,173.5C 136.167,173.5 135.833,173.5 135.5,173.5C 132.167,172.833 128.833,172.167 125.5,171.5C 126.167,171.5 126.5,171.167 126.5,170.5 Z"/></g>
<g><path style="opacity:1" fill="#e8e8e8" d="M 203.5,169.5 C 204.5,169.5 205.5,169.5 206.5,169.5C 206.5,172.5 206.5,175.5 206.5,178.5C 208.199,178.34 209.866,178.506 211.5,179C 209.348,180.413 207.014,181.246 204.5,181.5C 204.167,177.5 203.833,173.5 203.5,169.5 Z"/></g>
<g><path style="opacity:1" fill="#4d4d4d" d="M 215.5,170.5 C 217.337,170.639 217.67,171.306 216.5,172.5C 215.702,172.043 215.369,171.376 215.5,170.5 Z"/></g>
<g><path style="opacity:1" fill="#cecece" d="M 135.5,167.5 C 136.5,167.5 137.5,167.5 138.5,167.5C 139.222,168.551 140.222,169.218 141.5,169.5C 139.493,170.519 138.16,172.185 137.5,174.5C 138.365,174.564 139.365,174.897 140.5,175.5C 142.005,172.869 142.671,173.203 142.5,176.5C 140.473,176.338 138.473,176.505 136.5,177C 140.486,177.499 144.486,177.666 148.5,177.5C 148.5,177.833 148.5,178.167 148.5,178.5C 143.217,178.096 138.217,178.762 133.5,180.5C 132.448,180.649 131.448,180.483 130.5,180C 132.087,179.138 133.754,178.471 135.5,178C 133.735,177.36 132.068,177.527 130.5,178.5C 130.5,177.833 130.167,177.5 129.5,177.5C 131.964,176.433 134.297,175.1 136.5,173.5C 137.11,172.609 137.443,171.609 137.5,170.5C 138.167,170.5 138.5,170.167 138.5,169.5C 137.5,168.833 136.5,168.167 135.5,167.5 Z"/></g>
<g><path style="opacity:1" fill="#949494" d="M 145.5,171.5 C 146.653,172.313 146.653,173.313 145.5,174.5C 146.167,174.833 146.833,175.167 147.5,175.5C 146.167,176.833 144.833,176.833 143.5,175.5C 144.18,174.14 144.847,172.807 145.5,171.5 Z"/></g>
<g><path style="opacity:1" fill="#e3e3e3" d="M 220.5,178.5 C 220.5,178.833 220.5,179.167 220.5,179.5C 216.167,178.833 211.833,178.167 207.5,177.5C 207.281,176.325 207.614,175.325 208.5,174.5C 212.159,175.101 215.826,175.767 219.5,176.5C 219.863,177.183 220.196,177.85 220.5,178.5 Z"/></g>
<g><path style="opacity:1" fill="#393939" d="M 135.5,173.5 C 135.833,173.5 136.167,173.5 136.5,173.5C 134.297,175.1 131.964,176.433 129.5,177.5C 125.862,178.263 124.362,176.93 125,173.5C 125.839,174.624 127.006,175.291 128.5,175.5C 130.932,175.114 133.266,174.447 135.5,173.5 Z"/></g>
<g><path style="opacity:1" fill="#6c6c6c" d="M 156.5,180.5 C 153.995,179.583 151.662,179.583 149.5,180.5C 148.167,180.5 146.833,180.5 145.5,180.5C 145.334,187.175 145.5,193.842 146,200.5C 146.608,198.934 147.442,197.6 148.5,196.5C 150.46,193.823 151.96,190.823 153,187.5C 153.483,188.448 153.649,189.448 153.5,190.5C 153.818,193.481 152.818,195.815 150.5,197.5C 149.065,199.598 147.898,201.931 147,204.5C 146.667,203.5 146.333,202.5 146,201.5C 145.667,201.833 145.333,202.167 145,202.5C 144.5,194.841 144.334,187.174 144.5,179.5C 146.099,179.768 147.432,179.434 148.5,178.5C 148.5,178.167 148.5,177.833 148.5,177.5C 148.31,175.48 149.143,173.48 151,171.5C 152.667,172.833 154.333,174.167 156,175.5C 156.333,175.167 156.667,174.833 157,174.5C 157.379,176.57 156.545,178.07 154.5,179C 155.416,179.278 156.082,179.778 156.5,180.5 Z"/></g>
<g><path style="opacity:1" fill="#e7e7e7" d="M 196.5,192.5 C 193.915,197.875 189.582,200.375 183.5,200C 179.104,189.704 172.438,181.204 163.5,174.5C 171.37,173.355 173.037,169.688 168.5,163.5C 168.808,162.692 169.308,162.025 170,161.5C 172.969,164.954 176.802,166.454 181.5,166C 180.029,168.243 179.029,170.743 178.5,173.5C 175.875,171.896 174.875,172.23 175.5,174.5C 179.266,174.715 182.6,176.049 185.5,178.5C 188.031,184.096 190.365,189.762 192.5,195.5C 191.662,191.998 191.662,188.331 192.5,184.5C 192.459,180.205 190.959,176.538 188,173.5C 188.949,176.346 189.949,179.346 191,182.5C 191.667,184.167 191.667,185.833 191,187.5C 189.667,184.167 188.333,180.833 187,177.5C 184.75,176.292 182.583,174.959 180.5,173.5C 182.631,172.831 184.631,172.165 186.5,171.5C 184.801,171.66 183.134,171.494 181.5,171C 185.694,170.915 188.36,168.915 189.5,165C 189.361,163.699 188.695,162.866 187.5,162.5C 188.261,161.609 189.261,160.942 190.5,160.5C 190.599,163.121 190.933,165.788 191.5,168.5C 193.472,169.305 194.972,170.639 196,172.5C 197.077,178.39 198.244,184.223 199.5,190C 198.627,191.045 197.627,191.878 196.5,192.5 Z"/></g>
<g><path style="opacity:1" fill="#202020" d="M 186.5,171.5 C 187.527,170.152 188.86,169.652 190.5,170C 189.437,171.188 188.103,171.688 186.5,171.5 Z"/></g>
<g><path style="opacity:1" fill="#f4f4f4" d="M 183.5,165.5 C 187.412,168.236 186.745,169.07 181.5,168C 182.381,167.292 183.047,166.458 183.5,165.5 Z"/></g>
<g><path style="opacity:1" fill="#acacac" d="M 177.5,161.5 C 180.625,162.479 183.958,162.813 187.5,162.5C 183.615,165.114 179.615,165.114 175.5,162.5C 175.957,161.702 176.624,161.369 177.5,161.5 Z"/></g>
<g><path style="opacity:1" fill="#767676" d="M 220.5,179.5 C 220.5,179.167 220.5,178.833 220.5,178.5C 220.833,178.5 221.167,178.5 221.5,178.5C 225.167,178.5 228.833,178.5 232.5,178.5C 235.305,179.319 238.305,179.819 241.5,180C 232.515,181.047 223.515,181.38 214.5,181C 217.5,180.667 220.5,180.333 223.5,180C 222.552,179.517 221.552,179.351 220.5,179.5 Z"/></g>
<g><path style="opacity:1" fill="#5c5c5c" d="M 174.5,193.5 C 173.017,191.906 171.517,190.24 170,188.5C 169.667,189.167 169.333,189.833 169,190.5C 167.223,188.21 165.056,186.543 162.5,185.5C 160.685,184.37 158.685,183.704 156.5,183.5C 155.033,186.258 154.367,185.925 154.5,182.5C 156.993,182.869 157.66,182.203 156.5,180.5C 158.258,180.877 159.925,181.544 161.5,182.5C 161.153,180.86 161.653,179.193 163,177.5C 164.049,179.107 165.549,179.773 167.5,179.5C 167.34,181.199 167.506,182.866 168,184.5C 169.803,184.094 171.636,184.594 173.5,186C 174.815,187.395 174.481,188.395 172.5,189C 173.833,189.667 175.167,190.333 176.5,191C 175.244,191.417 174.577,192.25 174.5,193.5 Z"/></g>
<g><path style="opacity:1" fill="#292929" d="M 169.5,177.5 C 173.415,177.532 176.915,179.199 180,182.5C 182.304,187.739 183.97,193.072 185,198.5C 182.869,193.118 180.536,187.785 178,182.5C 175.386,180.444 172.553,178.777 169.5,177.5 Z"/></g>
<g><path style="opacity:1" fill="#f2f2f2" d="M 141.5,201.5 C 138.026,194.872 135.36,187.872 133.5,180.5C 136.206,180.425 138.873,180.092 141.5,179.5C 141.5,186.833 141.5,194.167 141.5,201.5 Z"/></g>
<g><path style="opacity:1" fill="#f7f7f7" d="M 149.5,180.5 C 151.635,180.147 152.968,180.98 153.5,183C 151.331,187.343 149.664,191.843 148.5,196.5C 147.442,197.6 146.608,198.934 146,200.5C 145.5,193.842 145.334,187.175 145.5,180.5C 146.833,180.5 148.167,180.5 149.5,180.5 Z"/></g>
<g><path style="opacity:1" fill="#262626" d="M 149.5,180.5 C 151.662,179.583 153.995,179.583 156.5,180.5C 157.66,182.203 156.993,182.869 154.5,182.5C 154.367,185.925 155.033,186.258 156.5,183.5C 156.293,186.241 155.293,188.574 153.5,190.5C 153.649,189.448 153.483,188.448 153,187.5C 151.96,190.823 150.46,193.823 148.5,196.5C 149.664,191.843 151.331,187.343 153.5,183C 152.968,180.98 151.635,180.147 149.5,180.5 Z"/></g>
<g><path style="opacity:1" fill="#f7f7f7" d="M 225.5,196.5 C 219.536,197.307 213.536,197.64 207.5,197.5C 206.549,196.081 206.216,194.415 206.5,192.5C 207.477,189.713 207.81,186.713 207.5,183.5C 212.482,182.947 217.482,182.613 222.5,182.5C 223.5,187.167 224.5,191.833 225.5,196.5 Z"/></g>
<g><path style="opacity:1" fill="#373737" d="M 133.5,180.5 C 135.36,187.872 138.026,194.872 141.5,201.5C 140.911,203.398 140.744,205.398 141,207.5C 140.138,205.913 139.471,204.246 139,202.5C 138.329,203.252 137.496,203.586 136.5,203.5C 131.869,199.37 127.369,195.037 123,190.5C 122.333,191.167 122.333,191.833 123,192.5C 125.705,195.036 128.205,197.703 130.5,200.5C 126.581,197.925 122.915,194.925 119.5,191.5C 117.317,192.692 115.984,194.525 115.5,197C 120.189,200.011 125.189,202.511 130.5,204.5C 130.082,205.222 129.416,205.722 128.5,206C 130.066,206.608 131.4,207.442 132.5,208.5C 132.167,208.5 131.833,208.5 131.5,208.5C 125.265,205.882 118.932,203.548 112.5,201.5C 112.737,202.791 112.404,203.791 111.5,204.5C 111.5,203.167 111.5,201.833 111.5,200.5C 114.106,194.377 118.106,189.211 123.5,185C 122.833,184.333 122.167,184.333 121.5,185C 119.63,187.04 117.63,188.873 115.5,190.5C 119.072,184.86 124.072,180.86 130.5,178.5C 132.068,177.527 133.735,177.36 135.5,178C 133.754,178.471 132.087,179.138 130.5,180C 131.448,180.483 132.448,180.649 133.5,180.5 Z"/></g>
<g><path style="opacity:1" fill="#f5f5f5" d="M 127.5,183.5 C 128.5,183.5 129.5,183.5 130.5,183.5C 132.719,189.911 134.886,196.244 137,202.5C 132.167,197.667 127.333,192.833 122.5,188C 124.063,186.264 125.73,184.764 127.5,183.5 Z"/></g>
<g><path style="opacity:1" fill="#f3f3f3" d="M 156.5,183.5 C 158.685,183.704 160.685,184.37 162.5,185.5C 162.953,186.458 163.619,187.292 164.5,188C 159.667,192.833 154.833,197.667 150,202.5C 150.019,200.893 150.185,199.226 150.5,197.5C 152.818,195.815 153.818,193.481 153.5,190.5C 155.293,188.574 156.293,186.241 156.5,183.5 Z"/></g>
<g><path style="opacity:1" fill="#272727" d="M 175.5,174.5 C 178.431,176.248 181.264,178.248 184,180.5C 186.304,185.739 187.97,191.072 189,196.5C 186.869,191.118 184.536,185.785 182,180.5C 178.584,178.208 175.084,176.041 171.5,174C 172.819,173.805 174.153,173.972 175.5,174.5 Z"/></g>
<g><path style="opacity:1" fill="#c4c4c4" d="M 245.5,181.5 C 245.167,181.5 244.833,181.5 244.5,181.5C 244.657,180.127 244.49,178.793 244,177.5C 243.71,179.952 243.044,182.285 242,184.5C 237.964,188.704 233.798,192.704 229.5,196.5C 229.5,196.167 229.5,195.833 229.5,195.5C 233.83,191.002 237.997,186.335 242,181.5C 242.781,180.056 242.614,178.723 241.5,177.5C 240.833,177.833 240.167,178.167 239.5,178.5C 238.416,175.912 236.749,173.745 234.5,172C 235,171.5 235.5,171 236,170.5C 237.5,172 239,173.5 240.5,175C 242.5,175.333 244.5,175.667 246.5,176C 245.594,177.699 245.261,179.533 245.5,181.5 Z"/></g>
<g><path style="opacity:1" fill="#626262" d="M 207.5,183.5 C 207.81,186.713 207.477,189.713 206.5,192.5C 206.672,191.508 206.338,190.842 205.5,190.5C 205.5,189.833 205.167,189.5 204.5,189.5C 204.5,188.833 204.167,188.5 203.5,188.5C 203.5,188.167 203.5,187.833 203.5,187.5C 203.5,186.833 203.5,186.167 203.5,185.5C 204.794,184.71 205.961,183.71 207,182.5C 207.399,182.728 207.565,183.062 207.5,183.5 Z"/></g>
<g><path style="opacity:1" fill="#1c1c1c" d="M 269.5,182.5 C 271.886,183.373 273.886,184.873 275.5,187C 277.085,187.085 278.418,187.251 279.5,187.5C 278.902,188.795 278.402,190.128 278,191.5C 277.481,190.484 276.647,189.818 275.5,189.5C 273.143,190.095 270.977,191.095 269,192.5C 268.506,190.866 268.34,189.199 268.5,187.5C 274.453,187.628 274.787,186.961 269.5,185.5C 269.5,184.5 269.5,183.5 269.5,182.5 Z"/></g>
<g><path style="opacity:1" fill="#7a7a7a" d="M 111.5,200.5 C 111.878,198.079 112.545,195.746 113.5,193.5C 113.427,191.973 114.094,190.973 115.5,190.5C 117.63,188.873 119.63,187.04 121.5,185C 122.167,184.333 122.833,184.333 123.5,185C 118.106,189.211 114.106,194.377 111.5,200.5 Z"/></g>
<g><path style="opacity:1" fill="#181818" d="M 71.5,194.5 C 70.7494,195.573 69.7494,195.74 68.5,195C 66.3799,192.591 64.3799,190.091 62.5,187.5C 63.5,187.5 64.5,187.5 65.5,187.5C 64.6679,183.327 64.6679,179.327 65.5,175.5C 68.5771,178.409 71.0771,181.742 73,185.5C 73.6667,188.167 73.6667,190.833 73,193.5C 72.6174,194.056 72.1174,194.389 71.5,194.5 Z"/></g>
<g><path style="opacity:1" fill="#b7b7b7" d="M 69.5,188.5 C 68.2438,188.539 67.2438,188.039 66.5,187C 68.1667,186.333 69.8333,186.333 71.5,187C 70.5842,187.278 69.9175,187.778 69.5,188.5 Z"/></g>
<g><path style="opacity:1" fill="#9c9c9c" d="M 66.5,184.5 C 67.7211,183.535 69.0544,183.702 70.5,185C 69.0715,185.579 67.7382,185.412 66.5,184.5 Z"/></g>
<g><path style="opacity:1" fill="#bcbcbc" d="M 66.5,179.5 C 67.6266,180.122 68.6266,180.955 69.5,182C 67.5106,182.519 66.5106,181.686 66.5,179.5 Z"/></g>
<g><path style="opacity:1" fill="#b4b4b4" d="M 69.5,188.5 C 70.5,188.5 71.5,188.5 72.5,188.5C 72.2825,192.06 71.2825,192.06 69.5,188.5 Z"/></g>
<g><path style="opacity:1" fill="#2e2e2e" d="M 148.5,178.5 C 147.432,179.434 146.099,179.768 144.5,179.5C 144.334,187.174 144.5,194.841 145,202.5C 145.333,202.167 145.667,201.833 146,201.5C 146.333,202.5 146.667,203.5 147,204.5C 147.898,201.931 149.065,199.598 150.5,197.5C 150.185,199.226 150.019,200.893 150,202.5C 154.833,197.667 159.667,192.833 164.5,188C 163.619,187.292 162.953,186.458 162.5,185.5C 165.056,186.543 167.223,188.21 169,190.5C 169.333,189.833 169.667,189.167 170,188.5C 171.517,190.24 173.017,191.906 174.5,193.5C 175.898,198.068 175.398,198.402 173,194.5C 172.722,195.416 172.222,196.082 171.5,196.5C 170.252,194.351 168.752,192.351 167,190.5C 166.617,191.056 166.117,191.389 165.5,191.5C 165.631,190.761 165.464,190.094 165,189.5C 161.5,193 158,196.5 154.5,200C 155.094,200.464 155.761,200.631 156.5,200.5C 155.5,202.167 154.167,203.5 152.5,204.5C 152.631,203.761 152.464,203.094 152,202.5C 150.167,204.333 148.333,206.167 146.5,208C 148.387,208.163 149.887,207.329 151,205.5C 151.75,206.126 152.584,206.626 153.5,207C 152.584,207.278 151.918,207.778 151.5,208.5C 149.651,209.593 147.984,210.926 146.5,212.5C 146.737,211.209 146.404,210.209 145.5,209.5C 144.167,209.5 142.833,209.5 141.5,209.5C 141.167,209.5 140.833,209.5 140.5,209.5C 140.5,208.833 140.167,208.5 139.5,208.5C 138.925,206.589 137.925,204.922 136.5,203.5C 137.496,203.586 138.329,203.252 139,202.5C 139.471,204.246 140.138,205.913 141,207.5C 140.744,205.398 140.911,203.398 141.5,201.5C 141.5,194.167 141.5,186.833 141.5,179.5C 138.873,180.092 136.206,180.425 133.5,180.5C 138.217,178.762 143.217,178.096 148.5,178.5 Z"/></g>
<g><path style="opacity:1" fill="#404040" d="M 196.5,192.5 C 194.829,185.712 193.329,178.712 192,171.5C 195.423,178.02 196.923,185.02 196.5,192.5 Z"/></g>
<g><path style="opacity:1" fill="#232323" d="M 244.5,181.5 C 241.154,187.359 236.82,192.526 231.5,197C 230.563,197.692 229.897,197.525 229.5,196.5C 233.798,192.704 237.964,188.704 242,184.5C 243.044,182.285 243.71,179.952 244,177.5C 244.49,178.793 244.657,180.127 244.5,181.5 Z"/></g>
<g><path style="opacity:1" fill="#dcdcdc" d="M 71.5,194.5 C 69.6159,194.288 68.2826,193.288 67.5,191.5C 69.7808,190.738 71.1141,191.738 71.5,194.5 Z"/></g>
<g><path style="opacity:1" fill="#252525" d="M 87.5,181.5 C 86.5041,181.414 85.6708,181.748 85,182.5C 84.6924,181.692 84.1924,181.025 83.5,180.5C 82.4164,181.665 81.5831,182.998 81,184.5C 80.1042,181.208 81.2709,178.875 84.5,177.5C 85.1667,178.167 85.8333,178.833 86.5,179.5C 89.3125,178.781 92.1459,178.114 95,177.5C 95.5,177.833 96,178.167 96.5,178.5C 95.8938,180.709 95.2272,182.876 94.5,185C 95.0406,187.865 93.7073,189.865 90.5,191C 96.4148,197.605 95.7482,202.939 88.5,207C 94.7745,198.208 92.7745,192.708 82.5,190.5C 79.6145,191.871 77.1145,193.871 75,196.5C 75,199.167 75,201.833 75,204.5C 73.6815,201.594 73.3482,198.594 74,195.5C 75.7146,193.241 77.5479,191.074 79.5,189C 81.898,188.626 84.2313,188.626 86.5,189C 85.4495,187.615 84.1161,186.615 82.5,186C 84.6605,185.004 86.3272,183.504 87.5,181.5 Z"/></g>
<g><path style="opacity:1" fill="#ececec" d="M 87.5,181.5 C 87.8417,180.662 88.5084,180.328 89.5,180.5C 90.8333,180.5 92.1667,180.5 93.5,180.5C 93.5,181.5 93.5,182.5 93.5,183.5C 91.752,184.789 91.4186,186.289 92.5,188C 90.8333,188.667 89.1667,188.667 87.5,188C 86.2264,187.023 86.2264,186.189 87.5,185.5C 87.9046,186.55 88.5712,186.55 89.5,185.5C 90.4252,184.643 91.0919,183.643 91.5,182.5C 90.4324,181.566 89.099,181.232 87.5,181.5 Z"/></g>
<g><path style="opacity:1" fill="#6a6a6a" d="M 91.5,182.5 C 91.0919,183.643 90.4252,184.643 89.5,185.5C 88.5712,186.55 87.9046,186.55 87.5,185.5C 87.3932,183.621 87.8932,183.288 89,184.5C 89.4169,183.244 90.2502,182.577 91.5,182.5 Z"/></g>
<g><path style="opacity:1" fill="#8c8c8c" d="M 89.5,180.5 C 90.9187,179.549 92.5853,179.216 94.5,179.5C 94.7678,181.099 94.4345,182.432 93.5,183.5C 93.5,182.5 93.5,181.5 93.5,180.5C 92.1667,180.5 90.8333,180.5 89.5,180.5 Z"/></g>
<g><path style="opacity:1" fill="#f4f4f4" d="M 130.5,200.5 C 131.614,201.885 132.614,203.385 133.5,205C 132.423,205.47 131.423,205.303 130.5,204.5C 125.189,202.511 120.189,200.011 115.5,197C 115.984,194.525 117.317,192.692 119.5,191.5C 122.915,194.925 126.581,197.925 130.5,200.5 Z"/></g>
<g><path style="opacity:1" fill="#484848" d="M 165.5,191.5 C 162.833,194.833 159.833,197.833 156.5,200.5C 155.761,200.631 155.094,200.464 154.5,200C 158,196.5 161.5,193 165,189.5C 165.464,190.094 165.631,190.761 165.5,191.5 Z"/></g>
<g><path style="opacity:1" fill="#f1f1f1" d="M 171.5,196.5 C 171.5,197.167 171.5,197.833 171.5,198.5C 169.181,198.992 167.181,199.992 165.5,201.5C 161.589,202.526 157.756,203.86 154,205.5C 153.235,205.43 152.735,205.097 152.5,204.5C 154.167,203.5 155.5,202.167 156.5,200.5C 159.833,197.833 162.833,194.833 165.5,191.5C 166.117,191.389 166.617,191.056 167,190.5C 168.752,192.351 170.252,194.351 171.5,196.5 Z"/></g>
<g><path style="opacity:1" fill="#090909" d="M 205.5,190.5 C 206.338,190.842 206.672,191.508 206.5,192.5C 206.216,194.415 206.549,196.081 207.5,197.5C 207.158,198.338 206.492,198.672 205.5,198.5C 205.5,195.833 205.5,193.167 205.5,190.5 Z"/></g>
<g><path style="opacity:1" fill="#242424" d="M 203.5,188.5 C 204.167,188.5 204.5,188.833 204.5,189.5C 199.167,199.5 191.5,207.167 181.5,212.5C 180.833,212.5 180.5,212.167 180.5,211.5C 190.5,206.167 198.167,198.5 203.5,188.5 Z"/></g>
<g><path style="opacity:1" fill="#1c1c1c" d="M 272.5,209.5 C 272.515,214.245 271.182,215.079 268.5,212C 266.564,211.187 264.564,210.687 262.5,210.5C 263.984,205.521 265.484,200.521 267,195.5C 269.12,192.92 271.287,192.92 273.5,195.5C 274.736,194.754 276.07,194.421 277.5,194.5C 277.5,195.5 277.5,196.5 277.5,197.5C 271.739,197.87 271.406,198.87 276.5,200.5C 275.902,201.795 275.402,203.128 275,204.5C 272.673,201.734 269.84,201.068 266.5,202.5C 266.709,203.086 267.043,203.586 267.5,204C 264.183,205.085 263.849,206.585 266.5,208.5C 266.998,207.397 267.331,206.397 267.5,205.5C 270.648,206.14 270.981,207.14 268.5,208.5C 269.728,210.176 271.061,210.509 272.5,209.5 Z"/></g>
<g><path style="opacity:1" fill="#1c1c1c" d="M 113.5,193.5 C 112.545,195.746 111.878,198.079 111.5,200.5C 110.778,200.918 110.278,201.584 110,202.5C 109.601,202.272 109.435,201.938 109.5,201.5C 109.896,198.279 111.229,195.612 113.5,193.5 Z"/></g>
<g><path style="opacity:1" fill="#787878" d="M 174.5,193.5 C 176.14,194.32 177.807,195.153 179.5,196C 176.93,197.349 176.93,198.516 179.5,199.5C 178.909,200.151 178.243,200.818 177.5,201.5C 178.246,202.736 178.579,204.07 178.5,205.5C 177.833,209.833 177.167,214.167 176.5,218.5C 176.5,217.833 176.5,217.167 176.5,216.5C 177.151,209.768 175.984,203.435 173,197.5C 172.617,198.056 172.117,198.389 171.5,198.5C 171.5,197.833 171.5,197.167 171.5,196.5C 172.222,196.082 172.722,195.416 173,194.5C 175.398,198.402 175.898,198.068 174.5,193.5 Z"/></g>
<g><path style="opacity:1" fill="#e4e4e4" d="M 268.5,196.5 C 269.675,196.281 270.675,196.614 271.5,197.5C 269.948,198.798 268.948,198.465 268.5,196.5 Z"/></g>
<g><path style="opacity:1" fill="#464646" d="M 225.5,196.5 C 224.5,197.167 223.5,197.833 222.5,198.5C 216.677,199.582 211.01,199.582 205.5,198.5C 206.492,198.672 207.158,198.338 207.5,197.5C 213.536,197.64 219.536,197.307 225.5,196.5 Z"/></g>
<g><path style="opacity:1" fill="#eeeeee" d="M 179.5,199.5 C 180.993,200.445 182.493,201.445 184,202.5C 185.798,201.496 187.632,200.996 189.5,201C 186.824,203.666 183.824,205.833 180.5,207.5C 179.833,207.5 179.167,207.5 178.5,207.5C 178.5,206.833 178.5,206.167 178.5,205.5C 178.579,204.07 178.246,202.736 177.5,201.5C 178.243,200.818 178.909,200.151 179.5,199.5 Z"/></g>
<g><path style="opacity:1" fill="#2a2a2a" d="M 86.5,193.5 C 87.552,193.351 88.552,193.517 89.5,194C 85.7098,196.181 85.7098,198.181 89.5,200C 85.8521,200.521 82.5187,201.521 79.5,203C 82.4122,200.327 82.0789,198.16 78.5,196.5C 78.8333,196.167 79.1667,195.833 79.5,195.5C 83.028,199.68 85.3613,199.013 86.5,193.5 Z"/></g>
<g><path style="opacity:1" fill="#f4f4f4" d="M 131.5,208.5 C 125.021,209.491 118.354,209.824 111.5,209.5C 111.5,207.833 111.5,206.167 111.5,204.5C 112.404,203.791 112.737,202.791 112.5,201.5C 118.932,203.548 125.265,205.882 131.5,208.5 Z"/></g>
<g><path style="opacity:1" fill="#afafaf" d="M 225.5,196.5 C 225.833,196.5 226.167,196.5 226.5,196.5C 226.5,197.167 226.5,197.833 226.5,198.5C 225.833,201.833 225.167,205.167 224.5,208.5C 225.069,204.671 224.402,201.337 222.5,198.5C 223.5,197.833 224.5,197.167 225.5,196.5 Z"/></g>
<g><path style="opacity:1" fill="#f6f6f6" d="M 171.5,201.5 C 174.084,202.048 175.084,203.715 174.5,206.5C 174.5,207.5 174.5,208.5 174.5,209.5C 168.158,209.666 161.825,209.5 155.5,209C 161.045,206.725 166.378,204.225 171.5,201.5 Z"/></g>
<g><path style="opacity:1" fill="#dddddd" d="M 203.5,187.5 C 203.5,187.833 203.5,188.167 203.5,188.5C 198.167,198.5 190.5,206.167 180.5,211.5C 179.957,211.44 179.624,211.107 179.5,210.5C 180.243,209.818 180.909,209.151 181.5,208.5C 190.151,202.848 197.484,195.848 203.5,187.5 Z"/></g>
<g><path style="opacity:1" fill="#252525" d="M 68.5,223.5 C 68.5,219.167 68.5,214.833 68.5,210.5C 67.5,210.5 66.5,210.5 65.5,210.5C 62.8786,207.902 59.8786,205.569 56.5,203.5C 59.5846,200.541 63.0846,198.208 67,196.5C 69.151,196.643 70.8176,197.643 72,199.5C 72.75,202.708 73.25,205.708 73.5,208.5C 76.6242,205.644 80.2908,204.811 84.5,206C 86.1558,207.829 88.1558,209.163 90.5,210C 91.4303,211.194 92.0969,212.527 92.5,214C 91.7819,217.461 91.2819,220.961 91,224.5C 87.8333,227 84.6667,229.5 81.5,232C 85.2534,233.588 87.2534,236.421 87.5,240.5C 92.4096,244.821 96.7429,249.654 100.5,255C 105.334,257.997 110.667,259.33 116.5,259C 110.832,261.143 105.498,260.476 100.5,257C 96.5,252.333 92.5,247.667 88.5,243C 86.4731,243.498 84.4731,243.331 82.5,242.5C 83.4911,241.335 84.4911,240.168 85.5,239C 85.1377,237.775 84.6377,236.609 84,235.5C 80.7891,233.809 77.6224,231.976 74.5,230C 72.1457,228.028 70.1457,225.861 68.5,223.5 Z"/></g>
<g><path style="opacity:1" fill="#ececec" d="M 62.5,200.5 C 67.1103,200.596 67.4436,201.596 63.5,203.5C 63.7093,204.086 64.0426,204.586 64.5,205C 66.4376,205.021 68.4376,204.854 70.5,204.5C 70.723,205.967 71.0563,207.467 71.5,209C 68.9061,208.512 66.2394,207.846 63.5,207C 60.1178,205.13 59.7845,202.964 62.5,200.5 Z"/></g>
<g><path style="opacity:1" fill="#ececec" d="M 67.5,198.5 C 69.3841,198.712 70.7174,199.712 71.5,201.5C 68.5812,202.932 67.2479,201.932 67.5,198.5 Z"/></g>
<g><path style="opacity:1" fill="#272727" d="M 111.5,204.5 C 111.5,206.167 111.5,207.833 111.5,209.5C 118.655,210.655 125.988,210.822 133.5,210C 132.944,209.617 132.611,209.117 132.5,208.5C 135.598,208.587 135.932,208.087 133.5,207C 134.416,206.626 135.25,206.126 136,205.5C 137.039,206.71 138.206,207.71 139.5,208.5C 140.167,208.5 140.5,208.833 140.5,209.5C 139.167,211.167 139.167,212.833 140.5,214.5C 139.213,215.768 138.213,215.435 137.5,213.5C 136.135,214.807 134.802,214.807 133.5,213.5C 126.167,213.5 118.833,213.5 111.5,213.5C 111.5,215.167 111.5,216.833 111.5,218.5C 111.167,218.5 110.833,218.5 110.5,218.5C 110.181,213.637 110.514,208.97 111.5,204.5 Z"/></g>
<g><path style="opacity:1" fill="#5f5f5f" d="M 136.5,203.5 C 137.925,204.922 138.925,206.589 139.5,208.5C 138.206,207.71 137.039,206.71 136,205.5C 135.25,206.126 134.416,206.626 133.5,207C 135.932,208.087 135.598,208.587 132.5,208.5C 131.4,207.442 130.066,206.608 128.5,206C 129.416,205.722 130.082,205.222 130.5,204.5C 131.423,205.303 132.423,205.47 133.5,205C 132.614,203.385 131.614,201.885 130.5,200.5C 128.205,197.703 125.705,195.036 123,192.5C 122.333,191.833 122.333,191.167 123,190.5C 127.369,195.037 131.869,199.37 136.5,203.5 Z"/></g>
<g><path style="opacity:1" fill="#525252" d="M 171.5,201.5 C 166.378,204.225 161.045,206.725 155.5,209C 161.825,209.5 168.158,209.666 174.5,209.5C 174.5,208.5 174.5,207.5 174.5,206.5C 175.434,207.568 175.768,208.901 175.5,210.5C 167.826,210.666 160.159,210.5 152.5,210C 154.932,208.913 154.598,208.413 151.5,208.5C 151.918,207.778 152.584,207.278 153.5,207C 152.584,206.626 151.75,206.126 151,205.5C 149.887,207.329 148.387,208.163 146.5,208C 148.333,206.167 150.167,204.333 152,202.5C 152.464,203.094 152.631,203.761 152.5,204.5C 152.735,205.097 153.235,205.43 154,205.5C 157.756,203.86 161.589,202.526 165.5,201.5C 167.677,201.414 169.677,200.747 171.5,199.5C 172.463,199.97 172.463,200.637 171.5,201.5 Z"/></g>
<g><path style="opacity:1" fill="#0d0d0d" d="M 178.5,205.5 C 178.5,206.167 178.5,206.833 178.5,207.5C 178.5,210.5 178.5,213.5 178.5,216.5C 178.483,218.565 178.15,220.565 177.5,222.5C 176.566,221.432 176.232,220.099 176.5,218.5C 177.167,214.167 177.833,209.833 178.5,205.5 Z"/></g>
<g><path style="opacity:1" fill="#1f1f1f" d="M 272.5,209.5 C 272.185,207.774 272.019,206.107 272,204.5C 274.984,205.872 275.151,207.539 272.5,209.5 Z"/></g>
<g><path style="opacity:1" fill="#ebebeb" d="M 77.5,207.5 C 82.4976,207.117 86.6642,208.784 90,212.5C 89.6243,216.124 89.6243,219.791 90,223.5C 83.7139,231.111 77.0472,231.445 70,224.5C 69.3333,221.833 69.3333,219.167 70,216.5C 71.6141,212.723 74.1141,209.723 77.5,207.5 Z"/></g>
<g><path style="opacity:1" fill="#202020" d="M 176.5,216.5 C 175.833,216.5 175.5,216.167 175.5,215.5C 172.062,214.177 168.229,213.51 164,213.5C 159.985,213.501 156.151,213.835 152.5,214.5C 151.448,214.351 150.448,214.517 149.5,215C 150.833,215.667 152.167,216.333 153.5,217C 152.584,217.374 151.75,217.874 151,218.5C 149.053,215.014 146.72,214.681 144,217.5C 143.667,217.167 143.333,216.833 143,216.5C 142.833,221 142.667,225.5 142.5,230C 142.507,234.886 143.174,239.386 144.5,243.5C 144.833,243.5 145.167,243.5 145.5,243.5C 147.167,243.5 148.833,243.5 150.5,243.5C 146.03,244.486 141.363,244.819 136.5,244.5C 136.5,243.833 136.833,243.5 137.5,243.5C 138.833,243.5 140.167,243.5 141.5,243.5C 141.825,235.981 141.492,228.648 140.5,221.5C 141.546,219.118 141.546,216.785 140.5,214.5C 141.961,215.686 143.295,215.686 144.5,214.5C 145.833,214.5 146.5,213.833 146.5,212.5C 147.984,210.926 149.651,209.593 151.5,208.5C 154.598,208.413 154.932,208.913 152.5,210C 160.159,210.5 167.826,210.666 175.5,210.5C 175.768,208.901 175.434,207.568 174.5,206.5C 175.084,203.715 174.084,202.048 171.5,201.5C 172.463,200.637 172.463,199.97 171.5,199.5C 169.677,200.747 167.677,201.414 165.5,201.5C 167.181,199.992 169.181,198.992 171.5,198.5C 172.117,198.389 172.617,198.056 173,197.5C 175.984,203.435 177.151,209.768 176.5,216.5 Z"/></g>
<g><path style="opacity:1" fill="#3a3a3a" d="M 108.5,203.5 C 109.167,208.5 109.833,213.5 110.5,218.5C 110.833,218.5 111.167,218.5 111.5,218.5C 112.404,219.209 112.737,220.209 112.5,221.5C 119.872,219.64 126.872,216.974 133.5,213.5C 134.802,214.807 136.135,214.807 137.5,213.5C 138.213,215.435 139.213,215.768 140.5,214.5C 141.546,216.785 141.546,219.118 140.5,221.5C 137.98,228.393 135.647,235.393 133.5,242.5C 135.099,242.232 136.432,242.566 137.5,243.5C 136.833,243.5 136.5,243.833 136.5,244.5C 137.589,245.336 139.422,246.003 142,246.5C 144.994,245.452 148.16,245.452 151.5,246.5C 125.189,248.863 110.522,236.863 107.5,210.5C 107.753,208.142 108.086,205.808 108.5,203.5 Z"/></g>
<g><path style="opacity:1" fill="#7e7e7e" d="M 131.5,208.5 C 131.833,208.5 132.167,208.5 132.5,208.5C 132.611,209.117 132.944,209.617 133.5,210C 125.988,210.822 118.655,210.655 111.5,209.5C 118.354,209.824 125.021,209.491 131.5,208.5 Z"/></g>
<g><path style="opacity:1" fill="#1a1a1a" d="M 141.5,209.5 C 142.833,209.5 144.167,209.5 145.5,209.5C 145.634,211.292 145.301,212.958 144.5,214.5C 141.227,213.938 140.227,212.271 141.5,209.5 Z"/></g>
<g><path style="opacity:1" fill="#959595" d="M 111.5,200.5 C 111.5,201.833 111.5,203.167 111.5,204.5C 110.514,208.97 110.181,213.637 110.5,218.5C 109.833,213.5 109.167,208.5 108.5,203.5C 108.328,202.508 108.662,201.842 109.5,201.5C 109.435,201.938 109.601,202.272 110,202.5C 110.278,201.584 110.778,200.918 111.5,200.5 Z"/></g>
<g><path style="opacity:1" fill="#adadad" d="M 145.5,209.5 C 146.404,210.209 146.737,211.209 146.5,212.5C 146.5,213.833 145.833,214.5 144.5,214.5C 145.301,212.958 145.634,211.292 145.5,209.5 Z"/></g>
<g><path style="opacity:1" fill="#9b9b9b" d="M 178.5,207.5 C 179.167,207.5 179.833,207.5 180.5,207.5C 180.5,208.167 180.833,208.5 181.5,208.5C 180.909,209.151 180.243,209.818 179.5,210.5C 179.624,211.107 179.957,211.44 180.5,211.5C 180.5,212.167 180.833,212.5 181.5,212.5C 180.341,213.74 179.341,215.074 178.5,216.5C 178.5,213.5 178.5,210.5 178.5,207.5 Z"/></g>
<g><path style="opacity:1" fill="#e2e2e2" d="M 142.5,210.5 C 144.337,210.639 144.67,211.306 143.5,212.5C 142.702,212.043 142.369,211.376 142.5,210.5 Z"/></g>
<g><path style="opacity:1" fill="#a7a7a7" d="M 70.5,211.5 C 71.7125,212.497 71.5458,213.497 70,214.5C 69.5304,213.423 69.6971,212.423 70.5,211.5 Z"/></g>
<g><path style="opacity:1" fill="#797979" d="M 65.5,210.5 C 66.5,210.5 67.5,210.5 68.5,210.5C 68.5,214.833 68.5,219.167 68.5,223.5C 68.0357,219.05 67.0357,214.717 65.5,210.5 Z"/></g>
<g><path style="opacity:1" fill="#f3f3f3" d="M 133.5,213.5 C 126.872,216.974 119.872,219.64 112.5,221.5C 112.737,220.209 112.404,219.209 111.5,218.5C 111.5,216.833 111.5,215.167 111.5,213.5C 118.833,213.5 126.167,213.5 133.5,213.5 Z"/></g>
<g><path style="opacity:1" fill="#9f9f9f" d="M 140.5,209.5 C 140.833,209.5 141.167,209.5 141.5,209.5C 140.227,212.271 141.227,213.938 144.5,214.5C 143.295,215.686 141.961,215.686 140.5,214.5C 139.167,212.833 139.167,211.167 140.5,209.5 Z"/></g>
<g><path style="opacity:1" fill="#f5f5f5" d="M 152.5,214.5 C 156.151,213.835 159.985,213.501 164,213.5C 168.229,213.51 172.062,214.177 175.5,215.5C 174.542,217.302 173.875,219.302 173.5,221.5C 173.44,222.043 173.107,222.376 172.5,222.5C 166.027,219.26 159.36,216.594 152.5,214.5 Z"/></g>
<g><path style="opacity:1" fill="#161616" d="M 261.5,215.5 C 259.027,215.053 258.86,214.053 261,212.5C 261.483,213.448 261.649,214.448 261.5,215.5 Z"/></g>
<g><path style="opacity:1" fill="#1c1c1c" d="M 80.5,209.5 C 81.1174,211.321 81.284,213.321 81,215.5C 82.586,214.624 84.086,213.624 85.5,212.5C 85.8333,212.833 86.1667,213.167 86.5,213.5C 84.7173,215.232 82.7173,216.732 80.5,218C 82.597,220 83.597,222.166 83.5,224.5C 82.3333,222.833 81.1667,221.167 80,219.5C 76.5439,225.937 75.7105,225.27 77.5,217.5C 76.1266,217.657 74.7932,217.49 73.5,217C 77.7291,216.271 80.0624,213.771 80.5,209.5 Z"/></g>
<g><path style="opacity:1" fill="#2b2b2b" d="M 190.5,224.5 C 189.833,224.5 189.167,224.5 188.5,224.5C 188.539,223.417 188.873,222.417 189.5,221.5C 188.167,221.167 186.833,220.833 185.5,220.5C 186.5,219.167 187.5,217.833 188.5,216.5C 188.291,215.914 187.957,215.414 187.5,215C 193.86,209.98 198.693,203.813 202,196.5C 201.288,199.947 199.955,203.281 198,206.5C 195.167,209.333 192.333,212.167 189.5,215C 191.572,217.707 194.239,218.707 197.5,218C 202.784,212.282 207.451,206.782 211.5,201.5C 209.837,205.496 207.671,209.163 205,212.5C 200.582,217.245 195.748,221.245 190.5,224.5 Z"/></g>
<g><path style="opacity:1" fill="#e8e8e8" d="M 189.5,219.5 C 190.386,218.224 191.386,218.224 192.5,219.5C 191.575,220.562 190.575,220.562 189.5,219.5 Z"/></g>
<g><path style="opacity:1" fill="#181818" d="M 261.5,215.5 C 264.576,216.341 267.576,216.674 270.5,216.5C 269.469,217.7 268.635,219.034 268,220.5C 262.331,219.29 262.165,219.79 267.5,222C 266.789,223.255 265.956,224.421 265,225.5C 262.334,222.775 259.501,221.109 256.5,220.5C 257.682,216.048 259.182,215.714 261,219.5C 261.49,218.207 261.657,216.873 261.5,215.5 Z"/></g>
<g><path style="opacity:1" fill="#f1f1f1" d="M 132.5,217.5 C 133.239,217.369 133.906,217.536 134.5,218C 129.833,222.667 125.167,227.333 120.5,232C 119.833,232.667 119.167,232.667 118.5,232C 117.167,230 115.833,228 114.5,226C 120.525,223.056 126.525,220.223 132.5,217.5 Z"/></g>
<g><path style="opacity:1" fill="#404040" d="M 152.5,214.5 C 159.36,216.594 166.027,219.26 172.5,222.5C 173.107,222.376 173.44,222.043 173.5,221.5C 174.573,222.251 174.74,223.251 174,224.5C 172.884,227.756 171.051,230.422 168.5,232.5C 168.369,233.239 168.536,233.906 169,234.5C 169.708,233.619 170.542,232.953 171.5,232.5C 170.167,235.833 167.833,238.167 164.5,239.5C 161.612,242.78 157.945,244.78 153.5,245.5C 153.062,245.565 152.728,245.399 152.5,245C 153.167,244.667 153.833,244.333 154.5,244C 153.207,243.51 151.873,243.343 150.5,243.5C 151.398,242.842 152.398,242.176 153.5,241.5C 151.154,235.479 148.82,229.479 146.5,223.5C 146.217,222.711 145.717,222.044 145,221.5C 144.5,228.826 144.334,236.159 144.5,243.5C 143.174,239.386 142.507,234.886 142.5,230C 142.667,225.5 142.833,221 143,216.5C 143.333,216.833 143.667,217.167 144,217.5C 146.72,214.681 149.053,215.014 151,218.5C 151.75,217.874 152.584,217.374 153.5,217C 152.167,216.333 150.833,215.667 149.5,215C 150.448,214.517 151.448,214.351 152.5,214.5 Z"/></g>
<g><path style="opacity:1" fill="#f5f5f5" d="M 168.5,232.5 C 163.092,228.6 158.092,224.1 153.5,219C 159.164,220.649 164.831,222.649 170.5,225C 170.957,225.414 171.291,225.914 171.5,226.5C 170.441,228.534 169.441,230.534 168.5,232.5 Z"/></g>
<g><path style="opacity:1" fill="#f2f2f2" d="M 149.5,221.5 C 154.452,225.785 159.119,230.452 163.5,235.5C 161.909,237.633 159.909,239.299 157.5,240.5C 154.446,234.34 151.779,228.006 149.5,221.5 Z"/></g>
<g><path style="opacity:1" fill="#111111" d="M 188.5,224.5 C 189.167,224.5 189.833,224.5 190.5,224.5C 192.128,240.622 188.795,241.122 180.5,226C 180.725,224.379 181.558,223.212 183,222.5C 184.597,223.885 186.43,224.551 188.5,224.5 Z"/></g>
<g><path style="opacity:1" fill="#ededed" d="M 136.5,220.5 C 135.183,227.247 132.683,233.913 129,240.5C 126.667,238.994 124.5,237.327 122.5,235.5C 127.188,230.48 131.855,225.48 136.5,220.5 Z"/></g>
<g><path style="opacity:1" fill="#f7f7f7" d="M 140.5,221.5 C 141.492,228.648 141.825,235.981 141.5,243.5C 140.167,243.5 138.833,243.5 137.5,243.5C 136.432,242.566 135.099,242.232 133.5,242.5C 135.647,235.393 137.98,228.393 140.5,221.5 Z"/></g>
<g><path style="opacity:1" fill="#f4f4f4" d="M 146.5,223.5 C 148.82,229.479 151.154,235.479 153.5,241.5C 152.398,242.176 151.398,242.842 150.5,243.5C 148.833,243.5 147.167,243.5 145.5,243.5C 145.176,236.646 145.509,229.979 146.5,223.5 Z"/></g>
<g><path style="opacity:1" fill="#242424" d="M 252.5,226.5 C 253.274,225.853 254.274,225.52 255.5,225.5C 258.5,226 261.5,226.5 264.5,227C 263.213,228.41 262.046,229.91 261,231.5C 260.692,230.692 260.192,230.025 259.5,229.5C 259.419,231.633 258.919,233.633 258,235.5C 256.656,232.135 254.823,229.135 252.5,226.5 Z"/></g>
<g><path style="opacity:1" fill="#626262" d="M 175.5,215.5 C 175.5,216.167 175.833,216.5 176.5,216.5C 176.5,217.167 176.5,217.833 176.5,218.5C 176.232,220.099 176.566,221.432 177.5,222.5C 176,226.173 174,229.506 171.5,232.5C 170.542,232.953 169.708,233.619 169,234.5C 168.536,233.906 168.369,233.239 168.5,232.5C 171.051,230.422 172.884,227.756 174,224.5C 174.74,223.251 174.573,222.251 173.5,221.5C 173.875,219.302 174.542,217.302 175.5,215.5 Z"/></g>
<g><path style="opacity:1" fill="#303030" d="M 226.5,198.5 C 227.446,210.128 225.112,220.795 219.5,230.5C 219.167,230.5 218.833,230.5 218.5,230.5C 217.923,229.227 217.257,229.227 216.5,230.5C 215.347,231.687 215.347,232.687 216.5,233.5C 215.368,234.354 214.035,234.354 212.5,233.5C 215.754,230.594 216.087,227.428 213.5,224C 214.759,216.536 215.759,209.036 216.5,201.5C 216.833,203.167 217.167,204.833 217.5,206.5C 216.832,212.508 216.166,218.508 215.5,224.5C 217.792,224.756 219.959,224.423 222,223.5C 223.895,218.675 224.728,213.675 224.5,208.5C 225.167,205.167 225.833,201.833 226.5,198.5 Z"/></g>
<g><path style="opacity:1" fill="#efefef" d="M 218.5,230.5 C 218.715,232.179 218.048,233.179 216.5,233.5C 215.347,232.687 215.347,231.687 216.5,230.5C 217.257,229.227 217.923,229.227 218.5,230.5 Z"/></g>
<g><path style="opacity:1" fill="#212121" d="M 248.5,230.5 C 257.468,232.237 258.635,236.237 252,242.5C 249.821,239.989 247.321,237.822 244.5,236C 245.665,234.008 246.998,232.175 248.5,230.5 Z"/></g>
<g><path style="opacity:1" fill="#0d0d0d" d="M 218.5,230.5 C 218.833,230.5 219.167,230.5 219.5,230.5C 221.319,233.241 223.319,235.907 225.5,238.5C 226.429,239.689 226.762,241.022 226.5,242.5C 221.845,242.883 217.512,241.883 213.5,239.5C 212.534,237.604 212.201,235.604 212.5,233.5C 214.035,234.354 215.368,234.354 216.5,233.5C 218.048,233.179 218.715,232.179 218.5,230.5 Z"/></g>
<g><path style="opacity:1" fill="#7e7e7e" d="M 146.5,223.5 C 145.509,229.979 145.176,236.646 145.5,243.5C 145.167,243.5 144.833,243.5 144.5,243.5C 144.334,236.159 144.5,228.826 145,221.5C 145.717,222.044 146.217,222.711 146.5,223.5 Z"/></g>
<g><path style="opacity:1" fill="#e7e7e7" d="M 247.5,234.5 C 248.497,233.287 249.497,233.454 250.5,235C 249.423,235.47 248.423,235.303 247.5,234.5 Z"/></g>
<g><path style="opacity:1" fill="#d9d9d9" d="M 250.5,237.5 C 251.849,236.203 253.182,236.37 254.5,238C 253.072,238.579 251.738,238.412 250.5,237.5 Z"/></g>
<g><path style="opacity:1" fill="#929292" d="M 164.5,239.5 C 163.761,239.631 163.094,239.464 162.5,239C 163.766,237.017 165.432,236.017 167.5,236C 166.29,237.039 165.29,238.206 164.5,239.5 Z"/></g>
<g><path style="opacity:1" fill="#070707" d="M 239.5,241.5 C 240.238,239.24 241.238,239.073 242.5,241C 241.552,241.483 240.552,241.649 239.5,241.5 Z"/></g>
<g><path style="opacity:1" fill="#1b1b1b" d="M 239.5,241.5 C 240.412,243.595 241.579,245.595 243,247.5C 246.018,248.761 245.852,250.095 242.5,251.5C 240.667,249.167 238.833,246.833 237,244.5C 236.601,244.728 236.435,245.062 236.5,245.5C 235.778,245.918 235.278,246.584 235,247.5C 234.617,246.944 234.117,246.611 233.5,246.5C 234.911,244.086 236.911,242.419 239.5,241.5 Z"/></g>
<g><path style="opacity:1" fill="#959595" d="M 150.5,243.5 C 151.873,243.343 153.207,243.51 154.5,244C 153.833,244.333 153.167,244.667 152.5,245C 152.728,245.399 153.062,245.565 153.5,245.5C 153.158,246.338 152.492,246.672 151.5,246.5C 148.16,245.452 144.994,245.452 142,246.5C 139.422,246.003 137.589,245.336 136.5,244.5C 141.363,244.819 146.03,244.486 150.5,243.5 Z"/></g>
<g><path style="opacity:1" fill="#6e6e6e" d="M 236.5,245.5 C 235.969,248.779 233.969,250.113 230.5,249.5C 230.5,249.167 230.5,248.833 230.5,248.5C 230.973,247.094 231.973,246.427 233.5,246.5C 234.117,246.611 234.617,246.944 235,247.5C 235.278,246.584 235.778,245.918 236.5,245.5 Z"/></g>
<g><path style="opacity:1" fill="#262626" d="M 230.5,248.5 C 230.5,248.833 230.5,249.167 230.5,249.5C 232.292,250.309 234.292,250.809 236.5,251C 237.574,251.739 238.241,252.739 238.5,254C 237.072,256.219 235.072,257.719 232.5,258.5C 231.972,257.153 231.805,255.819 232,254.5C 233.183,255.731 234.349,255.731 235.5,254.5C 233.314,253.779 231.147,253.113 229,252.5C 228.156,250.537 228.656,249.204 230.5,248.5 Z"/></g>
<g><path style="opacity:1" fill="#1d1d1d" d="M 232.5,258.5 C 231.235,259.479 229.901,260.479 228.5,261.5C 227.346,259.144 226.013,258.977 224.5,261C 226.992,262.249 226.825,263.416 224,264.5C 223.002,260.527 222.669,256.527 223,252.5C 225.802,255.146 228.968,257.146 232.5,258.5 Z"/></g>
<g><path style="opacity:1" fill="#212121" d="M 126.5,253.5 C 130.063,255.261 131.897,258.261 132,262.5C 132.739,260.779 133.573,259.113 134.5,257.5C 135.308,257.808 135.975,258.308 136.5,259C 134.058,261.371 132.224,264.204 131,267.5C 129.548,264.986 128.382,262.32 127.5,259.5C 125.73,260.82 125.397,262.32 126.5,264C 125.092,264.315 123.759,263.982 122.5,263C 125.6,260.628 126.933,257.462 126.5,253.5 Z"/></g>
<g><path style="opacity:1" fill="#2b2b2b" d="M 140.5,259.5 C 141.23,263.031 141.896,266.697 142.5,270.5C 142.167,270.833 141.833,271.167 141.5,271.5C 139.38,270.405 137.88,268.739 137,266.5C 136.507,269.985 135.007,270.485 132.5,268C 135.503,265.504 138.169,262.671 140.5,259.5 Z"/></g>
<g><path style="opacity:1" fill="#252525" d="M 219.5,265.5 C 220.174,261.167 221.174,260.833 222.5,264.5C 221.675,265.386 220.675,265.719 219.5,265.5 Z"/></g>
<g><path style="opacity:1" fill="#202020" d="M 162.5,271.5 C 163.167,271.5 163.5,271.833 163.5,272.5C 163.586,273.496 163.252,274.329 162.5,275C 159.975,275.896 157.808,275.396 156,273.5C 155.667,270.833 155.333,268.167 155,265.5C 153.594,266.668 152.428,266.335 151.5,264.5C 149.757,267.262 149.423,270.095 150.5,273C 148.316,273.442 146.316,272.942 144.5,271.5C 147.33,269.342 147.997,266.676 146.5,263.5C 145.914,263.709 145.414,264.043 145,264.5C 144.251,263.365 144.417,262.365 145.5,261.5C 150.078,263.144 154.744,264.478 159.5,265.5C 158.205,268.366 158.205,271.199 159.5,274C 161.489,274.519 162.489,273.686 162.5,271.5 Z"/></g>
<g><path style="opacity:1" fill="#686868" d="M 173.5,266.5 C 171.265,266.205 169.265,266.539 167.5,267.5C 166.5,267.5 165.5,267.5 164.5,267.5C 164.784,269.415 164.451,271.081 163.5,272.5C 163.5,271.833 163.167,271.5 162.5,271.5C 162.5,269.5 162.5,267.5 162.5,265.5C 166.371,265.185 170.038,265.518 173.5,266.5 Z"/></g>
<g><path style="opacity:1" fill="#212121" d="M 187.5,264.5 C 189.527,264.338 191.527,264.505 193.5,265C 192.565,267.381 192.232,269.881 192.5,272.5C 194.492,272.672 196.158,272.005 197.5,270.5C 198.833,271.5 198.833,272.5 197.5,273.5C 195.253,274.374 192.92,274.708 190.5,274.5C 190.692,270.747 189.692,267.413 187.5,264.5 Z"/></g>
<g><path style="opacity:1" fill="#1f1f1f" d="M 219.5,265.5 C 217.821,267.175 215.821,268.008 213.5,268C 213.957,267.586 214.291,267.086 214.5,266.5C 213.253,264.677 212.586,262.677 212.5,260.5C 209.266,260.237 207.932,261.737 208.5,265C 208.748,266.716 209.415,268.216 210.5,269.5C 207.145,272.781 205.311,272.114 205,267.5C 203.5,266 202,264.5 200.5,263C 201.5,262.5 202.5,262 203.5,261.5C 204.281,262.737 205.281,263.737 206.5,264.5C 207.072,262.922 207.406,261.422 207.5,260C 210.505,258.83 213.505,257.664 216.5,256.5C 217.167,256.833 217.833,257.167 218.5,257.5C 217.738,257.911 216.738,258.077 215.5,258C 214.269,259.183 214.269,260.349 215.5,261.5C 216.5,258.833 217.5,258.833 218.5,261.5C 217.147,262.524 216.48,263.857 216.5,265.5C 217.5,265.5 218.5,265.5 219.5,265.5 Z"/></g>
<g><path style="opacity:1" fill="#191919" d="M 173.5,266.5 C 175.777,267.862 176.11,269.695 174.5,272C 174.95,273.285 175.617,274.452 176.5,275.5C 176,275.833 175.5,276.167 175,276.5C 173.435,275.048 172.102,273.381 171,271.5C 170.405,272.899 170.572,274.232 171.5,275.5C 169.833,276.833 168.167,276.833 166.5,275.5C 167.393,272.916 167.726,270.249 167.5,267.5C 169.265,266.539 171.265,266.205 173.5,266.5 Z"/></g>
<g><path style="opacity:1" fill="#202020" d="M 181.5,265.5 C 182.376,265.369 183.043,265.702 183.5,266.5C 184.789,269.58 186.455,272.414 188.5,275C 186.098,275.678 183.932,275.178 182,273.5C 181.426,274.354 180.759,275.354 180,276.5C 179.5,276.167 179,275.833 178.5,275.5C 179.813,272.246 180.813,268.912 181.5,265.5 Z"/></g>
<g><path style="opacity:1" fill="#f5f5f5" d="M 170.5,267.5 C 172.465,267.948 172.798,268.948 171.5,270.5C 170.614,269.675 170.281,268.675 170.5,267.5 Z"/></g>
<g><path style="opacity:1" fill="#bebebe" d="M 22.5,284.5 C 30.9839,283.507 39.6506,283.174 48.5,283.5C 48.5,286.167 48.5,288.833 48.5,291.5C 51.1667,291.5 53.8333,291.5 56.5,291.5C 56.6664,300.173 56.4998,308.84 56,317.5C 55.5003,309.173 55.3336,300.84 55.5,292.5C 53.1667,292.5 50.8333,292.5 48.5,292.5C 48.1667,325.833 47.8333,325.833 47.5,292.5C 14.1667,292.167 14.1667,291.833 47.5,291.5C 47.5,289.167 47.5,286.833 47.5,284.5C 39.1667,284.5 30.8333,284.5 22.5,284.5 Z"/></g>
<g><path style="opacity:1" fill="#bebebe" d="M 291.5,283.5 C 300.173,283.334 308.84,283.5 317.5,284C 309.173,284.5 300.84,284.666 292.5,284.5C 292.5,286.833 292.5,289.167 292.5,291.5C 325.833,291.833 325.833,292.167 292.5,292.5C 292.167,325.833 291.833,325.833 291.5,292.5C 288.833,292.5 286.167,292.5 283.5,292.5C 283.666,300.84 283.5,309.173 283,317.5C 282.5,308.84 282.334,300.173 282.5,291.5C 285.5,291.5 288.5,291.5 291.5,291.5C 291.5,288.833 291.5,286.167 291.5,283.5 Z"/></g>
<g><path style="opacity:1" fill="#bebebe" d="M 169.5,295.5 C 170.461,297.265 170.795,299.265 170.5,301.5C 217.167,301.833 217.167,302.167 170.5,302.5C 170.167,325.167 169.833,325.167 169.5,302.5C 121.5,302.167 121.5,301.833 169.5,301.5C 169.5,299.5 169.5,297.5 169.5,295.5 Z"/></g>
</svg>
